<?xml version="1.0" encoding="UTF-8"?>
<!DOCTYPE svg PUBLIC "-//W3C//DTD SVG 1.1//EN" "http://www.w3.org/Graphics/SVG/1.1/DTD/svg11.dtd">
<svg xmlns="http://www.w3.org/2000/svg" version="1.1" width="301px" height="301px" style="shape-rendering:geometricPrecision; text-rendering:geometricPrecision; image-rendering:optimizeQuality; fill-rule:evenodd; clip-rule:evenodd" xmlns:xlink="http://www.w3.org/1999/xlink">
<g><path style="opacity:1" fill="#444996" d="M 122.5,60.5 C 123.326,64.9819 123.826,69.6486 124,74.5C 124.667,77.1667 125.333,77.1667 126,74.5C 126.333,65.1667 126.667,55.8333 127,46.5C 127.198,44.6183 127.698,42.9516 128.5,41.5C 128.044,54.6363 127.378,68.3029 126.5,82.5C 124.692,82.5086 123.025,82.0086 121.5,81C 112.991,70.8246 103.491,61.6579 93,53.5C 92.3333,54.5 92.3333,55.5 93,56.5C 98.208,63.5813 102.375,71.248 105.5,79.5C 104.348,78.375 103.348,78.375 102.5,79.5C 97.4374,70.5248 92.2707,61.5248 87,52.5C 84.3702,48.8683 81.3702,45.535 78,42.5C 76.9914,40.9751 76.4914,39.3084 76.5,37.5C 77.552,37.3505 78.552,37.5172 79.5,38C 81.5,40.6667 83.5,43.3333 85.5,46C 99.2108,52.7038 110.878,62.0371 120.5,74C 120.833,74.1667 121.167,74.3333 121.5,74.5C 122.493,69.8804 122.827,65.2137 122.5,60.5 Z"/></g>
<g><path style="opacity:1" fill="#fbbad6" d="M 229.5,69.5 C 224.789,69.2816 220.122,69.6149 215.5,70.5C 213.303,70.1519 211.47,69.1519 210,67.5C 206.689,70.7919 205.022,74.7919 205,79.5C 203.787,81.9252 202.621,84.2585 201.5,86.5C 200.391,85.71 199.058,85.21 197.5,85C 201.025,82.3656 202.025,79.0322 200.5,75C 201.791,72.9497 202.291,70.783 202,68.5C 200.292,70.5435 198.292,72.2101 196,73.5C 195.51,72.2068 195.343,70.8734 195.5,69.5C 198.024,65.6374 200.691,61.8041 203.5,58C 214.118,50.9465 217.785,53.6132 214.5,66C 214.509,67.4038 215.009,68.5704 216,69.5C 220.558,67.2027 225.058,67.2027 229.5,69.5 Z"/></g>
<g><path style="opacity:1" fill="#fbc3dc" d="M 80.5,65.5 C 83.8573,69.5346 86.8573,73.8679 89.5,78.5C 88.5,78.5 87.5,78.5 86.5,78.5C 87.4523,83.6437 89.9523,87.9771 94,91.5C 94.1962,89.7139 95.0295,88.3805 96.5,87.5C 99.4212,88.4066 102.421,88.7399 105.5,88.5C 106.931,89.7804 107.598,91.4471 107.5,93.5C 102.91,94.0303 98.5763,95.3637 94.5,97.5C 84.9081,94.6576 78.0748,88.6576 74,79.5C 73.8908,74.9534 72.3908,70.9534 69.5,67.5C 70.5,66.5 71.5,65.5 72.5,64.5C 74.8162,65.9318 77.3162,66.9318 80,67.5C 80.4643,66.9056 80.631,66.2389 80.5,65.5 Z"/></g>
<g><path style="opacity:1" fill="#faaed0" d="M 229.5,69.5 C 232.649,69.4152 235.316,70.4152 237.5,72.5C 236.579,74.2687 235.412,75.9354 234,77.5C 233.503,79.8098 233.337,82.1432 233.5,84.5C 231.876,84.6399 230.71,83.9733 230,82.5C 228.893,83.7119 228.393,83.3786 228.5,81.5C 229.893,79.7163 230.393,77.7163 230,75.5C 227.641,78.0376 226.141,77.3709 225.5,73.5C 223.5,74.8333 221.833,76.5 220.5,78.5C 222.117,80.6316 222.617,82.9649 222,85.5C 219.946,88.0472 218.113,90.7139 216.5,93.5C 214.881,91.8814 213.215,90.2147 211.5,88.5C 212.167,86.5 212.833,84.5 213.5,82.5C 213,82.1667 212.5,81.8333 212,81.5C 209.558,84.7693 206.392,87.1026 202.5,88.5C 202.167,87.8333 201.833,87.1667 201.5,86.5C 202.621,84.2585 203.787,81.9252 205,79.5C 205.022,74.7919 206.689,70.7919 210,67.5C 211.47,69.1519 213.303,70.1519 215.5,70.5C 220.122,69.6149 224.789,69.2816 229.5,69.5 Z"/></g>
<g><path style="opacity:1" fill="#3b4293" d="M 169.5,82.5 C 169.34,84.1992 169.506,85.8659 170,87.5C 170.725,88.0585 171.558,88.3918 172.5,88.5C 178.146,87.6354 183.813,86.9688 189.5,86.5C 193.5,86.5 197.5,86.5 201.5,86.5C 201.833,87.1667 202.167,87.8333 202.5,88.5C 192.928,89.211 183.261,90.3776 173.5,92C 171.193,92.3542 170.859,93.3542 172.5,95C 170.192,98.3637 168.192,98.0304 166.5,94C 164.866,93.5065 163.199,93.3398 161.5,93.5C 163.826,92.3099 164.993,90.3099 165,87.5C 165.805,84.3035 165.638,81.3035 164.5,78.5C 164.1,66.7975 165.434,55.2975 168.5,44C 168.167,43.5 167.833,43 167.5,42.5C 158.686,52.775 151.352,64.1084 145.5,76.5C 143.833,77.8333 142.167,77.8333 140.5,76.5C 135.426,64.3109 131.926,51.6442 130,38.5C 128.961,39.2438 128.461,40.2438 128.5,41.5C 127.698,42.9516 127.198,44.6183 127,46.5C 126.667,55.8333 126.333,65.1667 126,74.5C 125.333,77.1667 124.667,77.1667 124,74.5C 123.826,69.6486 123.326,64.9819 122.5,60.5C 122.464,53.1325 122.964,45.7991 124,38.5C 126.795,27.9883 128.629,17.3216 129.5,6.5C 131.144,6.28649 132.644,6.61983 134,7.5C 132.329,26.4687 134.329,45.1353 140,63.5C 140.473,65.779 141.473,67.779 143,69.5C 153,54.8333 163,40.1667 173,25.5C 174.54,19.7202 177.54,15.0536 182,11.5C 182.833,11.6667 183.667,11.8333 184.5,12C 172.699,33.9417 167.699,57.4417 169.5,82.5 Z"/></g>
<g><path style="opacity:1" fill="#fab1d1" d="M 80.5,65.5 C 80.631,66.2389 80.4643,66.9056 80,67.5C 77.3162,66.9318 74.8162,65.9318 72.5,64.5C 71.5,65.5 70.5,66.5 69.5,67.5C 72.3908,70.9534 73.8908,74.9534 74,79.5C 78.0748,88.6576 84.9081,94.6576 94.5,97.5C 92.5739,98.4861 90.5739,99.4861 88.5,100.5C 87.5255,96.4904 85.1922,95.1571 81.5,96.5C 80.3995,94.7226 79.5662,92.7226 79,90.5C 74.7367,88.0725 70.9034,85.0725 67.5,81.5C 66.8877,82.9953 66.8877,84.6619 67.5,86.5C 66.5434,89.1053 65.2101,91.4386 63.5,93.5C 58.1461,89.3127 56.8128,84.146 59.5,78C 57.7098,76.2661 55.7098,74.7661 53.5,73.5C 53.1944,77.7117 51.6944,78.3783 49,75.5C 48.5357,76.0944 48.369,76.7611 48.5,77.5C 47.596,76.791 47.2627,75.791 47.5,74.5C 45.4458,74.6347 43.7791,73.968 42.5,72.5C 44.2214,70.3057 46.5547,69.139 49.5,69C 54.158,67.1882 58.658,67.3549 63,69.5C 63.7504,68.8742 64.5838,68.3742 65.5,68C 64.6102,65.555 63.9435,62.7216 63.5,59.5C 62.9493,56.424 64.116,54.424 67,53.5C 69.7384,55.1199 72.5718,56.6199 75.5,58C 78.1998,59.8567 79.8665,62.3567 80.5,65.5 Z"/></g>
<g><path style="opacity:1" fill="#fab0d0" d="M 42.5,72.5 C 43.7791,73.968 45.4458,74.6347 47.5,74.5C 47.2627,75.791 47.596,76.791 48.5,77.5C 49.1667,78.8333 49.8333,80.1667 50.5,81.5C 49.8789,84.1213 48.2123,85.788 45.5,86.5C 43.5292,92.0393 44.5292,96.8727 48.5,101C 47.5,101.667 46.5,101.667 45.5,101C 42.0514,98.3913 38.718,95.5579 35.5,92.5C 33.9664,103.028 37.2997,111.695 45.5,118.5C 46.4362,122.308 47.7695,125.975 49.5,129.5C 51.9779,131.78 53.9779,134.447 55.5,137.5C 56.4168,138.127 57.4168,138.461 58.5,138.5C 55.8721,139.814 53.2054,141.147 50.5,142.5C 48.8506,141.351 47.3506,140.018 46,138.5C 44.5603,137.852 43.0603,137.519 41.5,137.5C 41.6803,133.153 39.847,129.819 36,127.5C 35.236,122.958 32.9027,118.958 29,115.5C 28.5172,114.552 28.3505,113.552 28.5,112.5C 30.3307,113.052 31.9974,113.052 33.5,112.5C 32.8118,111.145 31.8118,110.145 30.5,109.5C 29.3694,106.733 28.3694,103.9 27.5,101C 28.431,94.9437 28.431,88.777 27.5,82.5C 25.0295,76.466 27.0295,74.2993 33.5,76C 36.9468,77.981 38.6134,76.8143 38.5,72.5C 39.8333,72.5 41.1667,72.5 42.5,72.5 Z"/></g>
<g><path style="opacity:1" fill="#fbb0d1" d="M 237.5,72.5 C 238.833,72.5 240.167,72.5 241.5,72.5C 241.116,74.6648 241.783,76.3315 243.5,77.5C 246.277,75.1144 249.277,74.4478 252.5,75.5C 252.634,77.2915 252.301,78.9582 251.5,80.5C 250.884,87.5553 250.884,94.3887 251.5,101C 250.929,103.544 250.262,106.044 249.5,108.5C 247.457,109.579 246.124,111.246 245.5,113.5C 245.167,113.5 244.833,113.5 244.5,113.5C 246.301,110.774 245.634,109.108 242.5,108.5C 243.275,103.516 243.942,98.5157 244.5,93.5C 243.448,93.3505 242.448,93.5172 241.5,94C 238.5,96.5 235.5,99 232.5,101.5C 231.899,99.1596 232.732,97.1596 235,95.5C 235.813,91.5959 235.313,87.9292 233.5,84.5C 233.337,82.1432 233.503,79.8098 234,77.5C 235.412,75.9354 236.579,74.2687 237.5,72.5 Z"/></g>
<g><path style="opacity:1" fill="#facae0" d="M 201.5,86.5 C 197.5,86.5 193.5,86.5 189.5,86.5C 191.461,84.2018 192.461,81.5351 192.5,78.5C 191.5,78.5 190.5,78.5 189.5,78.5C 191.761,75.6351 193.761,72.6351 195.5,69.5C 195.343,70.8734 195.51,72.2068 196,73.5C 198.292,72.2101 200.292,70.5435 202,68.5C 202.291,70.783 201.791,72.9497 200.5,75C 202.025,79.0322 201.025,82.3656 197.5,85C 199.058,85.21 200.391,85.71 201.5,86.5 Z"/></g>
<g><path style="opacity:1" fill="#f8b0d1" d="M 189.5,78.5 C 190.5,78.5 191.5,78.5 192.5,78.5C 192.461,81.5351 191.461,84.2018 189.5,86.5C 183.813,86.9688 178.146,87.6354 172.5,88.5C 171.558,88.3918 170.725,88.0585 170,87.5C 169.506,85.8659 169.34,84.1992 169.5,82.5C 176.58,83.0617 183.247,81.7284 189.5,78.5 Z"/></g>
<g><path style="opacity:0.981" fill="#fde5ef" d="M 251.5,80.5 C 253.804,83.6581 255.97,86.9915 258,90.5C 258.116,97.1955 257.616,103.862 256.5,110.5C 253.612,111.01 251.279,110.344 249.5,108.5C 250.262,106.044 250.929,103.544 251.5,101C 250.884,94.3887 250.884,87.5553 251.5,80.5 Z"/></g>
<g><path style="opacity:0.995" fill="#fde4ef" d="M 27.5,82.5 C 28.431,88.777 28.431,94.9437 27.5,101C 28.3694,103.9 29.3694,106.733 30.5,109.5C 30.5299,110.497 30.0299,111.164 29,111.5C 27.2341,110.767 25.4008,110.433 23.5,110.5C 23.7148,112.179 23.0481,113.179 21.5,113.5C 21.7205,105.251 21.8871,96.9177 22,88.5C 23.331,86.0038 25.1644,84.0038 27.5,82.5 Z"/></g>
<g><path style="opacity:1" fill="#f9b0d1" d="M 89.5,78.5 C 93.0423,80.1013 96.709,81.4346 100.5,82.5C 101.416,82.4573 102.083,82.1239 102.5,81.5C 104.065,83.5093 105.065,85.8427 105.5,88.5C 102.421,88.7399 99.4212,88.4066 96.5,87.5C 95.0295,88.3805 94.1962,89.7139 94,91.5C 89.9523,87.9771 87.4523,83.6437 86.5,78.5C 87.5,78.5 88.5,78.5 89.5,78.5 Z"/></g>
<g><path style="opacity:1" fill="#424895" d="M 164.5,78.5 C 165.638,81.3035 165.805,84.3035 165,87.5C 164.993,90.3099 163.826,92.3099 161.5,93.5C 161.5,94.1667 161.167,94.5 160.5,94.5C 149.175,97.2977 137.841,99.9643 126.5,102.5C 125.833,102.5 125.167,102.5 124.5,102.5C 127.04,100.334 126.373,99.334 122.5,99.5C 135.499,96.8343 148.499,93.6677 161.5,90C 155.277,88.4185 148.944,88.0852 142.5,89C 134.474,90.4388 126.474,91.9388 118.5,93.5C 120.019,92.5902 121.685,91.7568 123.5,91C 121.866,90.5065 120.199,90.3398 118.5,90.5C 118.5,90.1667 118.5,89.8333 118.5,89.5C 133.596,85.2473 148.929,83.914 164.5,85.5C 164.5,83.1667 164.5,80.8333 164.5,78.5 Z"/></g>
<g><path style="opacity:1" fill="#f4b6d5" d="M 107.5,82.5 C 111.434,84.4385 115.101,86.7719 118.5,89.5C 118.5,89.8333 118.5,90.1667 118.5,90.5C 115.518,90.9629 112.518,91.2962 109.5,91.5C 109.127,88.4261 108.461,85.4261 107.5,82.5 Z"/></g>
<g><path style="opacity:1" fill="#fbbcd7" d="M 81.5,96.5 C 81.3398,98.1992 81.5065,99.8659 82,101.5C 85.3143,104.818 89.1476,107.318 93.5,109C 96.0291,112.694 99.0291,115.86 102.5,118.5C 95.449,117.27 88.449,115.937 81.5,114.5C 79.8921,111.385 78.0587,108.385 76,105.5C 75.6667,103.167 75.3333,100.833 75,98.5C 73.3745,98.8541 71.5412,98.8541 69.5,98.5C 69.719,99.675 69.3857,100.675 68.5,101.5C 66.3107,99.1133 64.6441,96.4466 63.5,93.5C 65.2101,91.4386 66.5434,89.1053 67.5,86.5C 66.8877,84.6619 66.8877,82.9953 67.5,81.5C 70.9034,85.0725 74.7367,88.0725 79,90.5C 79.5662,92.7226 80.3995,94.7226 81.5,96.5 Z"/></g>
<g><path style="opacity:1" fill="#333a8d" d="M 105.5,79.5 C 105.932,80.7095 106.599,81.7095 107.5,82.5C 108.461,85.4261 109.127,88.4261 109.5,91.5C 112.518,91.2962 115.518,90.9629 118.5,90.5C 120.199,90.3398 121.866,90.5065 123.5,91C 121.685,91.7568 120.019,92.5902 118.5,93.5C 116.194,93.9926 113.861,94.3259 111.5,94.5C 111.833,96.5 112.167,98.5 112.5,100.5C 114.95,100.702 117.283,100.369 119.5,99.5C 120.5,99.5 121.5,99.5 122.5,99.5C 126.373,99.334 127.04,100.334 124.5,102.5C 124.167,102.5 123.833,102.5 123.5,102.5C 119.686,102.734 116.186,103.734 113,105.5C 104.912,104.683 96.7453,104.183 88.5,104C 87.8333,103.667 87.1667,103.333 86.5,103C 87.3805,102.292 88.0472,101.458 88.5,100.5C 90.5739,99.4861 92.5739,98.4861 94.5,97.5C 98.5763,95.3637 102.91,94.0303 107.5,93.5C 107.598,91.4471 106.931,89.7804 105.5,88.5C 105.065,85.8427 104.065,83.5093 102.5,81.5C 102.5,80.8333 102.5,80.1667 102.5,79.5C 103.348,78.375 104.348,78.375 105.5,79.5 Z"/></g>
<g><path style="opacity:1" fill="#f6c1dd" d="M 118.5,93.5 C 119.15,95.4352 119.483,97.4352 119.5,99.5C 117.283,100.369 114.95,100.702 112.5,100.5C 112.167,98.5 111.833,96.5 111.5,94.5C 113.861,94.3259 116.194,93.9926 118.5,93.5 Z"/></g>
<g><path style="opacity:1" fill="#fcd3e5" d="M 63.5,93.5 C 64.6441,96.4466 66.3107,99.1133 68.5,101.5C 69.3857,100.675 69.719,99.675 69.5,98.5C 71.5412,98.8541 73.3745,98.8541 75,98.5C 75.3333,100.833 75.6667,103.167 76,105.5C 78.0587,108.385 79.8921,111.385 81.5,114.5C 77.0359,114.726 72.7026,114.726 68.5,114.5C 68.8457,113.304 69.3457,113.304 70,114.5C 70.6667,113.167 70.6667,111.833 70,110.5C 68.3228,108.475 67.3228,106.141 67,103.5C 66,102.833 65,102.167 64,101.5C 63.7954,103.582 63.9621,105.749 64.5,108C 63.2624,107.923 62.2624,108.089 61.5,108.5C 63.4408,110.834 65.1075,113.334 66.5,116C 63.9949,117.295 61.3283,117.461 58.5,116.5C 58.9984,113.319 58.1651,110.653 56,108.5C 54.3707,110.985 54.8707,113.151 57.5,115C 56.062,115.219 54.7287,115.719 53.5,116.5C 54.9524,117.94 55.9524,119.606 56.5,121.5C 54.7988,121.966 53.2988,121.966 52,121.5C 50.8804,119.586 50.7137,117.752 51.5,116C 49.1594,113.664 46.8261,111.33 44.5,109C 46.9701,106.36 49.8034,105.193 53,105.5C 53.3333,103.5 53.6667,101.5 54,99.5C 55.4936,100.747 56.9936,100.747 58.5,99.5C 57.0302,97.5183 57.3636,95.8517 59.5,94.5C 56.2308,90.2746 53.2308,85.9413 50.5,81.5C 49.8333,80.1667 49.1667,78.8333 48.5,77.5C 48.369,76.7611 48.5357,76.0944 49,75.5C 51.6944,78.3783 53.1944,77.7117 53.5,73.5C 55.7098,74.7661 57.7098,76.2661 59.5,78C 56.8128,84.146 58.1461,89.3127 63.5,93.5 Z"/></g>
<g><path style="opacity:1" fill="#f6c7e0" d="M 104.5,96.5 C 108.512,95.8874 110.512,97.5541 110.5,101.5C 105.821,101.666 101.155,101.499 96.5,101C 99.1915,99.3952 101.858,97.8952 104.5,96.5 Z"/></g>
<g><path style="opacity:1" fill="#fabfd9" d="M 216.5,93.5 C 214.217,96.9563 211.717,100.29 209,103.5C 208.667,102.833 208.333,102.167 208,101.5C 206.667,101.5 205.333,101.5 204,101.5C 202.748,105.678 201.582,109.844 200.5,114C 192.674,114.799 185.007,116.299 177.5,118.5C 177.062,118.565 176.728,118.399 176.5,118C 180.167,115.667 183.167,112.667 185.5,109C 188.276,108.934 190.442,107.768 192,105.5C 192.617,104.551 192.451,103.718 191.5,103C 193.376,100.954 195.376,99.1207 197.5,97.5C 196.409,96.1124 195.076,95.6124 193.5,96C 188.11,103.678 181.943,110.511 175,116.5C 170.858,115.478 170.858,113.812 175,111.5C 173.677,107.96 174.511,104.96 177.5,102.5C 175.993,101.261 174.826,101.595 174,103.5C 174.046,101.687 173.88,100.021 173.5,98.5C 169.573,100.722 165.406,102.388 161,103.5C 160.505,101.527 160.338,99.5273 160.5,97.5C 160.5,96.5 160.5,95.5 160.5,94.5C 161.167,94.5 161.5,94.1667 161.5,93.5C 163.199,93.3398 164.866,93.5065 166.5,94C 168.192,98.0304 170.192,98.3637 172.5,95C 170.859,93.3542 171.193,92.3542 173.5,92C 183.261,90.3776 192.928,89.211 202.5,88.5C 206.392,87.1026 209.558,84.7693 212,81.5C 212.5,81.8333 213,82.1667 213.5,82.5C 212.833,84.5 212.167,86.5 211.5,88.5C 213.215,90.2147 214.881,91.8814 216.5,93.5 Z"/></g>
<g><path style="opacity:1" fill="#fee2ee" d="M 81.5,114.5 C 88.449,115.937 95.449,117.27 102.5,118.5C 105.021,120.019 107.521,121.686 110,123.5C 113.37,120.682 115.87,121.349 117.5,125.5C 116.713,127.104 115.38,127.771 113.5,127.5C 107.927,123.915 101.761,121.582 95,120.5C 91.9599,120.047 88.9599,120.714 86,122.5C 81.8211,120.572 77.4878,119.239 73,118.5C 67.5518,119.458 64.7185,122.791 64.5,128.5C 63.2997,127.469 61.9663,126.635 60.5,126C 61.448,125.517 62.448,125.351 63.5,125.5C 63.1038,121.044 62.1038,120.71 60.5,124.5C 59.4822,123.807 58.4822,123.141 57.5,122.5C 56.8333,122.5 56.5,122.167 56.5,121.5C 55.9524,119.606 54.9524,117.94 53.5,116.5C 54.7287,115.719 56.062,115.219 57.5,115C 54.8707,113.151 54.3707,110.985 56,108.5C 58.1651,110.653 58.9984,113.319 58.5,116.5C 61.3283,117.461 63.9949,117.295 66.5,116C 65.1075,113.334 63.4408,110.834 61.5,108.5C 62.2624,108.089 63.2624,107.923 64.5,108C 63.9621,105.749 63.7954,103.582 64,101.5C 65,102.167 66,102.833 67,103.5C 67.3228,106.141 68.3228,108.475 70,110.5C 70.6667,111.833 70.6667,113.167 70,114.5C 69.3457,113.304 68.8457,113.304 68.5,114.5C 72.7026,114.726 77.0359,114.726 81.5,114.5 Z"/></g>
<g><path style="opacity:1" fill="#fddbea" d="M 228.5,81.5 C 225.769,85.9413 222.769,90.2746 219.5,94.5C 220.891,94.1086 221.891,94.9419 222.5,97C 222.043,97.414 221.709,97.914 221.5,98.5C 223.078,99.2978 224.744,99.7978 226.5,100C 221.034,105.54 216.367,111.04 212.5,116.5C 215.126,117.449 217.792,117.449 220.5,116.5C 220.338,114.473 220.505,112.473 221,110.5C 223.445,109.023 225.612,107.19 227.5,105C 230.401,105.563 233.068,106.73 235.5,108.5C 233.203,110.294 231.037,112.294 229,114.5C 228.316,115.784 228.483,116.951 229.5,118C 228.151,118.772 227.318,119.939 227,121.5C 225.578,121.594 224.078,121.928 222.5,122.5C 223.706,124.516 223.706,126.516 222.5,128.5C 221.181,130.796 219.514,132.796 217.5,134.5C 216.446,134.68 215.446,135.013 214.5,135.5C 213.502,133.51 212.502,131.51 211.5,129.5C 203.721,128.611 196.055,128.611 188.5,129.5C 190.559,128.049 191.559,126.049 191.5,123.5C 187.404,122.715 184.07,123.882 181.5,127C 178.5,127.333 175.5,127.667 172.5,128C 171,128.833 169.833,130 169,131.5C 167.51,130.272 166.01,130.272 164.5,131.5C 164.201,129.027 163.201,126.86 161.5,125C 162.13,123.69 163.13,122.856 164.5,122.5C 169.498,123.614 173.831,122.28 177.5,118.5C 185.007,116.299 192.674,114.799 200.5,114C 201.582,109.844 202.748,105.678 204,101.5C 205.333,101.5 206.667,101.5 208,101.5C 208.333,102.167 208.667,102.833 209,103.5C 211.717,100.29 214.217,96.9563 216.5,93.5C 218.113,90.7139 219.946,88.0472 222,85.5C 222.617,82.9649 222.117,80.6316 220.5,78.5C 221.833,76.5 223.5,74.8333 225.5,73.5C 226.141,77.3709 227.641,78.0376 230,75.5C 230.393,77.7163 229.893,79.7163 228.5,81.5 Z"/></g>
<g><path style="opacity:0.965" fill="#fde7f1" d="M 158.5,101.5 C 158.144,102.87 157.31,103.87 156,104.5C 150.45,105.223 146.95,108.223 145.5,113.5C 144.5,113.5 143.5,113.5 142.5,113.5C 143.231,115.599 143.231,117.599 142.5,119.5C 141.026,118.564 140.026,117.23 139.5,115.5C 138.675,114.614 137.675,114.281 136.5,114.5C 133.833,112.827 131.833,110.493 130.5,107.5C 128.735,105.947 126.902,105.614 125,106.5C 124.59,105.099 124.09,103.766 123.5,102.5C 123.833,102.5 124.167,102.5 124.5,102.5C 125.167,102.5 125.833,102.5 126.5,102.5C 130.632,105.738 134.966,108.738 139.5,111.5C 142.965,109.597 146.298,107.43 149.5,105C 152.327,103.336 155.327,102.17 158.5,101.5 Z"/></g>
<g><path style="opacity:1" fill="#fcd6e7" d="M 177.5,118.5 C 173.831,122.28 169.498,123.614 164.5,122.5C 164.307,118.993 164.973,115.66 166.5,112.5C 165.675,111.614 164.675,111.281 163.5,111.5C 163.189,110.522 162.522,109.855 161.5,109.5C 159.191,110.933 157.691,110.266 157,107.5C 155.933,108.191 154.766,108.691 153.5,109C 151.992,113.08 149.325,114.58 145.5,113.5C 146.95,108.223 150.45,105.223 156,104.5C 157.31,103.87 158.144,102.87 158.5,101.5C 158.989,100.005 159.655,98.6715 160.5,97.5C 160.338,99.5273 160.505,101.527 161,103.5C 165.406,102.388 169.573,100.722 173.5,98.5C 173.88,100.021 174.046,101.687 174,103.5C 174.826,101.595 175.993,101.261 177.5,102.5C 174.511,104.96 173.677,107.96 175,111.5C 170.858,113.812 170.858,115.478 175,116.5C 181.943,110.511 188.11,103.678 193.5,96C 195.076,95.6124 196.409,96.1124 197.5,97.5C 195.376,99.1207 193.376,100.954 191.5,103C 192.451,103.718 192.617,104.551 192,105.5C 190.442,107.768 188.276,108.934 185.5,109C 183.167,112.667 180.167,115.667 176.5,118C 176.728,118.399 177.062,118.565 177.5,118.5 Z"/></g>
<g><path style="opacity:1" fill="#fad1e5" d="M 88.5,100.5 C 88.0472,101.458 87.3805,102.292 86.5,103C 87.1667,103.333 87.8333,103.667 88.5,104C 96.7453,104.183 104.912,104.683 113,105.5C 116.186,103.734 119.686,102.734 123.5,102.5C 124.09,103.766 124.59,105.099 125,106.5C 126.902,105.614 128.735,105.947 130.5,107.5C 131.833,110.493 133.833,112.827 136.5,114.5C 134.409,114.318 132.409,114.652 130.5,115.5C 127.454,111.619 123.954,108.286 120,105.5C 119.5,106.667 118.667,107.5 117.5,108C 118.5,108.333 119.5,108.667 120.5,109C 118.563,109.122 117.23,109.955 116.5,111.5C 114.083,117.112 116.083,119.778 122.5,119.5C 122.586,122.958 120.919,124.958 117.5,125.5C 115.87,121.349 113.37,120.682 110,123.5C 107.521,121.686 105.021,120.019 102.5,118.5C 99.0291,115.86 96.0291,112.694 93.5,109C 89.1476,107.318 85.3143,104.818 82,101.5C 81.5065,99.8659 81.3398,98.1992 81.5,96.5C 85.1922,95.1571 87.5255,96.4904 88.5,100.5 Z"/></g>
<g><path style="opacity:0.997" fill="#fcd0e4" d="M 30.5,109.5 C 31.8118,110.145 32.8118,111.145 33.5,112.5C 31.9974,113.052 30.3307,113.052 28.5,112.5C 28.3505,113.552 28.5172,114.552 29,115.5C 32.9027,118.958 35.236,122.958 36,127.5C 39.847,129.819 41.6803,133.153 41.5,137.5C 43.0603,137.519 44.5603,137.852 46,138.5C 47.3506,140.018 48.8506,141.351 50.5,142.5C 49.205,143.488 47.8717,144.488 46.5,145.5C 41.6183,141.831 36.285,138.664 30.5,136C 27.1832,135.502 23.8499,135.335 20.5,135.5C 20.6107,134.883 20.944,134.383 21.5,134C 19.3911,132.859 17.5578,131.359 16,129.5C 15.13,124.913 13.63,120.579 11.5,116.5C 11.6082,115.558 11.9415,114.725 12.5,114C 15.4816,113.502 18.4816,113.335 21.5,113.5C 23.0481,113.179 23.7148,112.179 23.5,110.5C 25.4008,110.433 27.2341,110.767 29,111.5C 30.0299,111.164 30.5299,110.497 30.5,109.5 Z"/></g>
<g><path style="opacity:1" fill="#fdd9e9" d="M 263.5,113.5 C 264.833,113.5 266.167,113.5 267.5,113.5C 266.572,118.247 265.405,122.914 264,127.5C 262.5,130.333 260.333,132.5 257.5,134C 258.056,134.383 258.389,134.883 258.5,135.5C 258.167,135.5 257.833,135.5 257.5,135.5C 256.305,135.322 255.138,134.989 254,134.5C 249.956,135.449 246.123,136.782 242.5,138.5C 242.062,138.565 241.728,138.399 241.5,138C 246.973,131.86 252.806,126.027 259,120.5C 260.128,118.655 260.628,116.655 260.5,114.5C 261.791,114.737 262.791,114.404 263.5,113.5 Z"/></g>
<g><path style="opacity:1" fill="#fbc3dc" d="M 136.5,114.5 C 137.675,114.281 138.675,114.614 139.5,115.5C 140.026,117.23 141.026,118.564 142.5,119.5C 143.231,117.599 143.231,115.599 142.5,113.5C 143.5,113.5 144.5,113.5 145.5,113.5C 149.325,114.58 151.992,113.08 153.5,109C 154.766,108.691 155.933,108.191 157,107.5C 157.691,110.266 159.191,110.933 161.5,109.5C 162.522,109.855 163.189,110.522 163.5,111.5C 161.167,112.167 158.833,112.833 156.5,113.5C 156.5,114.5 156.5,115.5 156.5,116.5C 154.167,117.167 151.833,117.833 149.5,118.5C 149.5,119.5 149.5,120.5 149.5,121.5C 146.973,122.517 144.473,122.517 142,121.5C 141.05,122.022 140.216,122.689 139.5,123.5C 137.446,121.74 135.446,119.907 133.5,118C 130.294,117.704 127.128,117.204 124,116.5C 121.463,114.809 118.963,113.142 116.5,111.5C 117.23,109.955 118.563,109.122 120.5,109C 119.5,108.667 118.5,108.333 117.5,108C 118.667,107.5 119.5,106.667 120,105.5C 123.954,108.286 127.454,111.619 130.5,115.5C 132.409,114.652 134.409,114.318 136.5,114.5 Z"/></g>
<g><path style="opacity:1" fill="#fbc8de" d="M 163.5,111.5 C 164.675,111.281 165.675,111.614 166.5,112.5C 164.973,115.66 164.307,118.993 164.5,122.5C 163.13,122.856 162.13,123.69 161.5,125C 163.201,126.86 164.201,129.027 164.5,131.5C 162.867,132.945 161.034,134.279 159,135.5C 157.883,134.051 157.216,132.384 157,130.5C 156.329,131.252 155.496,131.586 154.5,131.5C 153.417,131.461 152.417,131.127 151.5,130.5C 151.167,131 150.833,131.5 150.5,132C 151.576,135.944 153.576,139.277 156.5,142C 158.025,143.009 159.692,143.509 161.5,143.5C 161.238,144.978 161.571,146.311 162.5,147.5C 165.807,149.64 168.974,151.974 172,154.5C 172.383,153.944 172.883,153.611 173.5,153.5C 173.465,161 171.465,161.5 167.5,155C 164.929,153.546 162.262,152.38 159.5,151.5C 157.229,147.136 154.562,142.969 151.5,139C 148.308,137.643 145.308,136.143 142.5,134.5C 137.401,133.933 132.568,132.599 128,130.5C 126.347,130.82 125.347,131.82 125,133.5C 124.29,132.027 123.124,131.36 121.5,131.5C 121.5,133.167 121.5,134.833 121.5,136.5C 119.319,136.716 117.653,135.883 116.5,134C 109.922,133.744 103.422,132.91 97,131.5C 95.5962,131.509 94.4296,132.009 93.5,133C 94.6405,133.741 94.6405,134.575 93.5,135.5C 91.8333,135.833 90.1667,136.167 88.5,136.5C 83.6869,134.904 78.6869,133.904 73.5,133.5C 71.716,134.574 70.5494,136.24 70,138.5C 68.3121,134.974 66.1454,134.641 63.5,137.5C 62.2008,136.306 60.8675,135.306 59.5,134.5C 61.2624,134.357 62.9291,134.691 64.5,135.5C 66.3809,129.735 70.3809,127.402 76.5,128.5C 80.6659,128.341 84.6659,129.008 88.5,130.5C 89.1667,130.167 89.8333,129.833 90.5,129.5C 89.0144,127.698 88.0144,125.698 87.5,123.5C 90.1873,123.336 92.854,123.503 95.5,124C 96.1667,125.333 97.1667,126.333 98.5,127C 102.911,127.017 107.077,127.85 111,129.5C 112.011,128.944 112.844,128.278 113.5,127.5C 115.38,127.771 116.713,127.104 117.5,125.5C 120.919,124.958 122.586,122.958 122.5,119.5C 124.917,121.411 127.25,123.578 129.5,126C 132.167,126 134.833,126 137.5,126C 140.333,128.167 142.833,130.667 145,133.5C 145.561,131.275 146.561,129.275 148,127.5C 151.177,125.489 153.677,122.822 155.5,119.5C 158.084,118.607 160.751,118.274 163.5,118.5C 164.833,116.167 164.833,113.833 163.5,111.5 Z"/></g>
<g><path style="opacity:1" fill="#fbcce1" d="M 249.5,108.5 C 251.279,110.344 253.612,111.01 256.5,110.5C 257.404,111.209 257.737,112.209 257.5,113.5C 259.5,113.5 261.5,113.5 263.5,113.5C 262.791,114.404 261.791,114.737 260.5,114.5C 260.628,116.655 260.128,118.655 259,120.5C 252.806,126.027 246.973,131.86 241.5,138C 241.728,138.399 242.062,138.565 242.5,138.5C 240.795,140.192 238.795,141.525 236.5,142.5C 235.624,142.631 234.957,142.298 234.5,141.5C 237.936,140.397 239.936,138.064 240.5,134.5C 239.515,132.902 239.349,131.235 240,129.5C 244.196,126.303 246.53,121.97 247,116.5C 251.368,114.623 250.868,113.623 245.5,113.5C 246.124,111.246 247.457,109.579 249.5,108.5 Z"/></g>
<g><path style="opacity:1" fill="#fcd6e7" d="M 113.5,127.5 C 112.844,128.278 112.011,128.944 111,129.5C 107.077,127.85 102.911,127.017 98.5,127C 97.1667,126.333 96.1667,125.333 95.5,124C 92.854,123.503 90.1873,123.336 87.5,123.5C 88.0144,125.698 89.0144,127.698 90.5,129.5C 89.8333,129.833 89.1667,130.167 88.5,130.5C 84.6659,129.008 80.6659,128.341 76.5,128.5C 70.3809,127.402 66.3809,129.735 64.5,135.5C 62.9291,134.691 61.2624,134.357 59.5,134.5C 58.3171,131.297 56.9837,128.13 55.5,125C 56.0556,123.989 56.7222,123.156 57.5,122.5C 58.4822,123.141 59.4822,123.807 60.5,124.5C 62.1038,120.71 63.1038,121.044 63.5,125.5C 62.448,125.351 61.448,125.517 60.5,126C 61.9663,126.635 63.2997,127.469 64.5,128.5C 64.7185,122.791 67.5518,119.458 73,118.5C 77.4878,119.239 81.8211,120.572 86,122.5C 88.9599,120.714 91.9599,120.047 95,120.5C 101.761,121.582 107.927,123.915 113.5,127.5 Z"/></g>
<g><path style="opacity:1" fill="#fbb6d4" d="M 116.5,111.5 C 118.963,113.142 121.463,114.809 124,116.5C 127.128,117.204 130.294,117.704 133.5,118C 135.446,119.907 137.446,121.74 139.5,123.5C 140.216,122.689 141.05,122.022 142,121.5C 144.473,122.517 146.973,122.517 149.5,121.5C 149.5,120.5 149.5,119.5 149.5,118.5C 151.833,117.833 154.167,117.167 156.5,116.5C 156.5,115.5 156.5,114.5 156.5,113.5C 158.833,112.833 161.167,112.167 163.5,111.5C 164.833,113.833 164.833,116.167 163.5,118.5C 160.751,118.274 158.084,118.607 155.5,119.5C 153.677,122.822 151.177,125.489 148,127.5C 146.561,129.275 145.561,131.275 145,133.5C 142.833,130.667 140.333,128.167 137.5,126C 134.833,126 132.167,126 129.5,126C 127.25,123.578 124.917,121.411 122.5,119.5C 116.083,119.778 114.083,117.112 116.5,111.5 Z"/></g>
<g><path style="opacity:1" fill="#fbc2db" d="M 50.5,81.5 C 53.2308,85.9413 56.2308,90.2746 59.5,94.5C 57.3636,95.8517 57.0302,97.5183 58.5,99.5C 56.9936,100.747 55.4936,100.747 54,99.5C 53.6667,101.5 53.3333,103.5 53,105.5C 49.8034,105.193 46.9701,106.36 44.5,109C 46.8261,111.33 49.1594,113.664 51.5,116C 50.7137,117.752 50.8804,119.586 52,121.5C 53.2988,121.966 54.7988,121.966 56.5,121.5C 56.5,122.167 56.8333,122.5 57.5,122.5C 56.7222,123.156 56.0556,123.989 55.5,125C 56.9837,128.13 58.3171,131.297 59.5,134.5C 60.8675,135.306 62.2008,136.306 63.5,137.5C 66.1454,134.641 68.3121,134.974 70,138.5C 70.5494,136.24 71.716,134.574 73.5,133.5C 72.466,136.46 72.466,139.794 73.5,143.5C 72.3536,141.525 70.687,140.025 68.5,139C 65.1832,138.502 61.8499,138.335 58.5,138.5C 57.4168,138.461 56.4168,138.127 55.5,137.5C 53.9779,134.447 51.9779,131.78 49.5,129.5C 47.7695,125.975 46.4362,122.308 45.5,118.5C 37.2997,111.695 33.9664,103.028 35.5,92.5C 38.718,95.5579 42.0514,98.3913 45.5,101C 46.5,101.667 47.5,101.667 48.5,101C 44.5292,96.8727 43.5292,92.0393 45.5,86.5C 48.2123,85.788 49.8789,84.1213 50.5,81.5 Z"/></g>
<g><path style="opacity:1" fill="#fbc6dd" d="M 235.5,108.5 C 234.651,112.533 232.984,116.199 230.5,119.5C 230.709,120.086 231.043,120.586 231.5,121C 228.854,124.484 226.354,127.984 224,131.5C 219.577,137.425 213.744,141.092 206.5,142.5C 206.817,139.428 206.484,136.428 205.5,133.5C 200.279,134.297 195.113,135.297 190,136.5C 188.5,136.167 187,135.833 185.5,135.5C 184.359,134.575 184.359,133.741 185.5,133C 184.57,132.009 183.404,131.509 182,131.5C 178.921,131.581 176.421,132.581 174.5,134.5C 172.517,134.157 171.183,134.824 170.5,136.5C 168.262,135.463 165.929,135.297 163.5,136C 162.89,137.947 162.057,139.781 161,141.5C 161.178,139.56 160.178,137.893 158,136.5C 157.107,137.711 156.274,137.711 155.5,136.5C 155.709,135.914 156.043,135.414 156.5,135C 155.177,134.184 154.511,133.017 154.5,131.5C 155.496,131.586 156.329,131.252 157,130.5C 157.216,132.384 157.883,134.051 159,135.5C 161.034,134.279 162.867,132.945 164.5,131.5C 166.01,130.272 167.51,130.272 169,131.5C 169.833,130 171,128.833 172.5,128C 175.5,127.667 178.5,127.333 181.5,127C 184.07,123.882 187.404,122.715 191.5,123.5C 191.559,126.049 190.559,128.049 188.5,129.5C 196.055,128.611 203.721,128.611 211.5,129.5C 212.502,131.51 213.502,133.51 214.5,135.5C 215.446,135.013 216.446,134.68 217.5,134.5C 219.514,132.796 221.181,130.796 222.5,128.5C 223.706,126.516 223.706,124.516 222.5,122.5C 224.078,121.928 225.578,121.594 227,121.5C 227.318,119.939 228.151,118.772 229.5,118C 228.483,116.951 228.316,115.784 229,114.5C 231.037,112.294 233.203,110.294 235.5,108.5 Z"/></g>
<g><path style="opacity:1" fill="#fbbbd7" d="M 159.5,151.5 C 155.342,146.842 151.009,142.342 146.5,138C 142.553,136.892 140.386,138.392 140,142.5C 135.841,139.358 131.174,137.358 126,136.5C 125.167,136.833 124.333,137.167 123.5,137.5C 123.006,139.026 122.339,140.359 121.5,141.5C 121.389,140.883 121.056,140.383 120.5,140C 118.833,139.833 117.167,139.667 115.5,139.5C 106.139,140.057 97.1394,140.39 88.5,140.5C 86.832,142.34 85.332,144.34 84,146.5C 80.5168,155.423 77.6834,164.423 75.5,173.5C 75.6567,172.127 75.49,170.793 75,169.5C 73.3333,168.5 71.6667,167.5 70,166.5C 69.4586,163.385 67.9586,161.052 65.5,159.5C 70.296,155.241 72.9627,149.908 73.5,143.5C 72.466,139.794 72.466,136.46 73.5,133.5C 78.6869,133.904 83.6869,134.904 88.5,136.5C 90.1667,136.167 91.8333,135.833 93.5,135.5C 94.6405,134.575 94.6405,133.741 93.5,133C 94.4296,132.009 95.5962,131.509 97,131.5C 103.422,132.91 109.922,133.744 116.5,134C 117.653,135.883 119.319,136.716 121.5,136.5C 121.5,134.833 121.5,133.167 121.5,131.5C 123.124,131.36 124.29,132.027 125,133.5C 125.347,131.82 126.347,130.82 128,130.5C 132.568,132.599 137.401,133.933 142.5,134.5C 145.308,136.143 148.308,137.643 151.5,139C 154.562,142.969 157.229,147.136 159.5,151.5 Z"/></g>
<g><path style="opacity:1" fill="#fcbfd9" d="M 228.5,81.5 C 228.393,83.3786 228.893,83.7119 230,82.5C 230.71,83.9733 231.876,84.6399 233.5,84.5C 235.313,87.9292 235.813,91.5959 235,95.5C 232.732,97.1596 231.899,99.1596 232.5,101.5C 235.5,99 238.5,96.5 241.5,94C 242.448,93.5172 243.448,93.3505 244.5,93.5C 243.942,98.5157 243.275,103.516 242.5,108.5C 239.341,112.135 236.174,115.802 233,119.5C 228.75,136.418 217.916,145.251 200.5,146C 199.95,142.992 198.45,142.159 196,143.5C 192.307,141.73 188.473,140.396 184.5,139.5C 181.128,137.814 177.795,136.147 174.5,134.5C 176.421,132.581 178.921,131.581 182,131.5C 183.404,131.509 184.57,132.009 185.5,133C 184.359,133.741 184.359,134.575 185.5,135.5C 187,135.833 188.5,136.167 190,136.5C 195.113,135.297 200.279,134.297 205.5,133.5C 206.484,136.428 206.817,139.428 206.5,142.5C 213.744,141.092 219.577,137.425 224,131.5C 226.354,127.984 228.854,124.484 231.5,121C 231.043,120.586 230.709,120.086 230.5,119.5C 232.984,116.199 234.651,112.533 235.5,108.5C 233.068,106.73 230.401,105.563 227.5,105C 225.612,107.19 223.445,109.023 221,110.5C 220.505,112.473 220.338,114.473 220.5,116.5C 217.792,117.449 215.126,117.449 212.5,116.5C 216.367,111.04 221.034,105.54 226.5,100C 224.744,99.7978 223.078,99.2978 221.5,98.5C 221.709,97.914 222.043,97.414 222.5,97C 221.891,94.9419 220.891,94.1086 219.5,94.5C 222.769,90.2746 225.769,85.9413 228.5,81.5 Z"/></g>
<g><path style="opacity:1" fill="#faaccd" d="M 174.5,134.5 C 177.795,136.147 181.128,137.814 184.5,139.5C 188.736,145.092 193.069,150.758 197.5,156.5C 198.562,158.022 199.229,159.688 199.5,161.5C 197.245,169.762 192.912,176.762 186.5,182.5C 185.778,181.449 184.778,180.782 183.5,180.5C 188.925,176.978 191.092,171.978 190,165.5C 188.961,164.29 187.794,163.29 186.5,162.5C 182.625,160.315 178.625,158.315 174.5,156.5C 174.5,155.167 174.5,153.833 174.5,152.5C 174.62,150.801 174.954,149.135 175.5,147.5C 173.567,143.966 171.9,140.3 170.5,136.5C 171.183,134.824 172.517,134.157 174.5,134.5 Z"/></g>
<g><path style="opacity:1" fill="#f9b3d2" d="M 18.5,135.5 C 19.1667,135.5 19.8333,135.5 20.5,135.5C 23.8499,135.335 27.1832,135.502 30.5,136C 36.285,138.664 41.6183,141.831 46.5,145.5C 41.1828,150.486 37.5161,156.486 35.5,163.5C 32.1668,164.167 30.1668,162.833 29.5,159.5C 23.9356,155.729 19.7689,150.729 17,144.5C 14.6274,141.614 12.1274,138.78 9.5,136C 12.4816,135.502 15.4816,135.335 18.5,135.5 Z"/></g>
<g><path style="opacity:1" fill="#fbbfd9" d="M 244.5,113.5 C 244.833,113.5 245.167,113.5 245.5,113.5C 250.868,113.623 251.368,114.623 247,116.5C 246.53,121.97 244.196,126.303 240,129.5C 239.349,131.235 239.515,132.902 240.5,134.5C 239.936,138.064 237.936,140.397 234.5,141.5C 234.957,142.298 235.624,142.631 236.5,142.5C 232.175,144.515 227.841,146.681 223.5,149C 221.212,151.743 219.045,154.577 217,157.5C 216.405,156.101 216.572,154.768 217.5,153.5C 216.645,152.707 215.811,153.04 215,154.5C 214.251,153.365 214.417,152.365 215.5,151.5C 219.315,148.315 223.315,145.648 227.5,143.5C 227.351,142.448 227.517,141.448 228,140.5C 234.313,134.541 237.979,127.208 239,118.5C 239.333,119.833 239.667,121.167 240,122.5C 241.416,119.391 242.916,116.391 244.5,113.5 Z"/></g>
<g><path style="opacity:1" fill="#fdd6e8" d="M 154.5,131.5 C 154.511,133.017 155.177,134.184 156.5,135C 156.043,135.414 155.709,135.914 155.5,136.5C 156.274,137.711 157.107,137.711 158,136.5C 160.178,137.893 161.178,139.56 161,141.5C 162.057,139.781 162.89,137.947 163.5,136C 165.929,135.297 168.262,135.463 170.5,136.5C 171.9,140.3 173.567,143.966 175.5,147.5C 174.954,149.135 174.62,150.801 174.5,152.5C 173.833,152.5 173.5,152.833 173.5,153.5C 172.883,153.611 172.383,153.944 172,154.5C 168.974,151.974 165.807,149.64 162.5,147.5C 161.571,146.311 161.238,144.978 161.5,143.5C 159.692,143.509 158.025,143.009 156.5,142C 153.576,139.277 151.576,135.944 150.5,132C 150.833,131.5 151.167,131 151.5,130.5C 152.417,131.127 153.417,131.461 154.5,131.5 Z"/></g>
<g><path style="opacity:1" fill="#fbc0d9" d="M 257.5,135.5 C 257.833,135.5 258.167,135.5 258.5,135.5C 259.167,135.5 259.833,135.5 260.5,135.5C 263.5,135.5 266.5,135.5 269.5,135.5C 269.911,138.553 270.577,141.553 271.5,144.5C 270.833,145.5 270.167,146.5 269.5,147.5C 261.773,154.401 253.94,161.068 246,167.5C 245.586,167.043 245.086,166.709 244.5,166.5C 243.329,168.842 242.162,171.176 241,173.5C 240.536,172.906 240.369,172.239 240.5,171.5C 240.5,169.833 240.5,168.167 240.5,166.5C 242.797,164.706 244.963,162.706 247,160.5C 247.333,160.833 247.667,161.167 248,161.5C 248.302,157.355 250.135,154.022 253.5,151.5C 255.167,146.316 258.167,142.149 262.5,139C 261.113,137.317 259.447,136.15 257.5,135.5 Z"/></g>
<g><path style="opacity:1" fill="#f8afcf" d="M 242.5,108.5 C 245.634,109.108 246.301,110.774 244.5,113.5C 242.916,116.391 241.416,119.391 240,122.5C 239.667,121.167 239.333,119.833 239,118.5C 237.979,127.208 234.313,134.541 228,140.5C 227.517,141.448 227.351,142.448 227.5,143.5C 223.315,145.648 219.315,148.315 215.5,151.5C 214.417,152.365 214.251,153.365 215,154.5C 215.811,153.04 216.645,152.707 217.5,153.5C 216.572,154.768 216.405,156.101 217,157.5C 219.045,154.577 221.212,151.743 223.5,149C 227.841,146.681 232.175,144.515 236.5,142.5C 238.795,141.525 240.795,140.192 242.5,138.5C 246.123,136.782 249.956,135.449 254,134.5C 255.138,134.989 256.305,135.322 257.5,135.5C 259.447,136.15 261.113,137.317 262.5,139C 258.167,142.149 255.167,146.316 253.5,151.5C 250.135,154.022 248.302,157.355 248,161.5C 247.667,161.167 247.333,160.833 247,160.5C 244.963,162.706 242.797,164.706 240.5,166.5C 240.682,164.409 240.348,162.409 239.5,160.5C 238.277,159.386 236.944,159.219 235.5,160C 232.124,165.253 228.624,170.42 225,175.5C 225.334,164.668 230.834,159.001 241.5,158.5C 241.694,154.738 239.86,153.071 236,153.5C 229.702,154.783 224.702,158.116 221,163.5C 218.038,168.638 217.372,173.971 219,179.5C 219.708,180.381 220.542,181.047 221.5,181.5C 224.209,183.132 223.875,183.632 220.5,183C 218.503,181.807 216.836,180.307 215.5,178.5C 216.498,172.188 216.998,165.854 217,159.5C 215.192,157.604 213.025,157.104 210.5,158C 208.622,159.543 207.122,161.376 206,163.5C 205.667,160.5 205.333,157.5 205,154.5C 202.664,156.54 200.831,158.873 199.5,161.5C 199.229,159.688 198.562,158.022 197.5,156.5C 193.069,150.758 188.736,145.092 184.5,139.5C 188.473,140.396 192.307,141.73 196,143.5C 198.45,142.159 199.95,142.992 200.5,146C 217.916,145.251 228.75,136.418 233,119.5C 236.174,115.802 239.341,112.135 242.5,108.5 Z"/></g>
<g><path style="opacity:1" fill="#fab0d0" d="M 88.5,140.5 C 97.1394,140.39 106.139,140.057 115.5,139.5C 117.167,139.667 118.833,139.833 120.5,140C 121.056,140.383 121.389,140.883 121.5,141.5C 123.259,144.185 124.259,147.185 124.5,150.5C 121.833,150.5 119.167,150.5 116.5,150.5C 115.5,150.5 114.5,150.5 113.5,150.5C 114.63,154.313 116.963,157.313 120.5,159.5C 121.318,162.107 121.818,164.774 122,167.5C 124.09,170.022 125.924,172.688 127.5,175.5C 127.443,176.609 127.11,177.609 126.5,178.5C 124.521,176.832 122.188,176.166 119.5,176.5C 117.015,174.992 114.348,173.659 111.5,172.5C 111.931,171.707 112.265,170.873 112.5,170C 111.711,168.374 110.711,166.874 109.5,165.5C 105.456,164.644 101.789,162.978 98.5,160.5C 97.914,160.709 97.414,161.043 97,161.5C 94.7069,159.51 92.3736,157.51 90,155.5C 89.9252,153.065 89.0919,152.398 87.5,153.5C 89.0712,149.084 89.4045,144.751 88.5,140.5 Z"/></g>
<g><path style="opacity:1" fill="#fab4d2" d="M 159.5,151.5 C 162.262,152.38 164.929,153.546 167.5,155C 171.465,161.5 173.465,161 173.5,153.5C 173.5,152.833 173.833,152.5 174.5,152.5C 174.5,153.833 174.5,155.167 174.5,156.5C 178.625,158.315 182.625,160.315 186.5,162.5C 180.302,162.596 175.635,165.263 172.5,170.5C 167.884,165.062 162.384,159.728 156,154.5C 154.682,157.406 154.348,160.406 155,163.5C 157.071,164.103 158.238,165.436 158.5,167.5C 155.322,168.344 152.655,170.011 150.5,172.5C 145.089,167.591 139.755,162.425 134.5,157C 128.639,153.851 122.639,151.685 116.5,150.5C 119.167,150.5 121.833,150.5 124.5,150.5C 124.259,147.185 123.259,144.185 121.5,141.5C 122.339,140.359 123.006,139.026 123.5,137.5C 124.333,137.167 125.167,136.833 126,136.5C 131.174,137.358 135.841,139.358 140,142.5C 140.386,138.392 142.553,136.892 146.5,138C 151.009,142.342 155.342,146.842 159.5,151.5 Z"/></g>
<g><path style="opacity:1" fill="#f7afcf" d="M 63.5,161.5 C 64.6129,162.946 64.7796,164.613 64,166.5C 61.022,168.311 58.522,170.644 56.5,173.5C 59.0723,175.636 60.239,178.303 60,181.5C 57.5786,179.303 54.7452,177.97 51.5,177.5C 41.5971,168.279 41.2638,158.779 50.5,149C 54.6758,145.562 59.3425,143.895 64.5,144C 67.3788,145.666 68.2121,148.166 67,151.5C 64.5,156.667 60.6667,160.5 55.5,163C 58.3217,163.428 60.9884,162.928 63.5,161.5 Z"/></g>
<g><path style="opacity:1" fill="#fab8d6" d="M 119.5,176.5 C 116.447,176.111 113.78,176.777 111.5,178.5C 105.881,181.119 101.548,185.119 98.5,190.5C 97.2915,187.478 95.9582,187.145 94.5,189.5C 94.6633,187.143 94.4966,184.81 94,182.5C 93.2613,181.426 92.2613,180.759 91,180.5C 87.4391,182.055 84.4391,184.388 82,187.5C 82.4228,175.963 84.2561,164.629 87.5,153.5C 89.0919,152.398 89.9252,153.065 90,155.5C 92.3736,157.51 94.7069,159.51 97,161.5C 97.414,161.043 97.914,160.709 98.5,160.5C 101.789,162.978 105.456,164.644 109.5,165.5C 110.711,166.874 111.711,168.374 112.5,170C 112.265,170.873 111.931,171.707 111.5,172.5C 114.348,173.659 117.015,174.992 119.5,176.5 Z"/></g>
<g><path style="opacity:1" fill="#f7cce2" d="M 172.5,170.5 C 170.783,173.98 169.45,177.647 168.5,181.5C 166.027,184.804 163.027,187.638 159.5,190C 157.5,190.667 155.5,190.667 153.5,190C 152.663,188.989 152.33,187.822 152.5,186.5C 159.2,186.225 163.7,182.892 166,176.5C 167.24,170.294 164.74,167.294 158.5,167.5C 158.238,165.436 157.071,164.103 155,163.5C 154.348,160.406 154.682,157.406 156,154.5C 162.384,159.728 167.884,165.062 172.5,170.5 Z"/></g>
<g><path style="opacity:1" fill="#fad3e7" d="M 116.5,150.5 C 122.639,151.685 128.639,153.851 134.5,157C 139.755,162.425 145.089,167.591 150.5,172.5C 146.245,177.359 144.579,183.025 145.5,189.5C 144.539,187.735 144.205,185.735 144.5,183.5C 143.209,183.737 142.209,183.404 141.5,182.5C 145.438,179.76 146.438,176.093 144.5,171.5C 139.081,170.959 135.581,173.293 134,178.5C 133.506,176.866 133.34,175.199 133.5,173.5C 131.142,173.253 129.142,173.919 127.5,175.5C 125.924,172.688 124.09,170.022 122,167.5C 121.818,164.774 121.318,162.107 120.5,159.5C 116.963,157.313 114.63,154.313 113.5,150.5C 114.5,150.5 115.5,150.5 116.5,150.5 Z"/></g>
<g><path style="opacity:1" fill="#313a8f" d="M 215.5,178.5 C 214.013,183.175 214.347,187.841 216.5,192.5C 215.311,193.429 213.978,193.762 212.5,193.5C 211.542,192.038 210.376,190.705 209,189.5C 208.382,181.079 208.715,172.746 210,164.5C 206.852,171.621 203.519,178.621 200,185.5C 198.817,186.731 197.651,186.731 196.5,185.5C 195.77,182.891 195.27,180.224 195,177.5C 192.946,180.047 191.113,182.714 189.5,185.5C 188.5,186.167 187.5,186.833 186.5,187.5C 184.112,189.361 181.446,190.694 178.5,191.5C 177.167,191.5 175.833,191.5 174.5,191.5C 172.445,190.441 171.111,188.775 170.5,186.5C 169.498,184.989 168.831,183.322 168.5,181.5C 169.45,177.647 170.783,173.98 172.5,170.5C 175.635,165.263 180.302,162.596 186.5,162.5C 187.794,163.29 188.961,164.29 190,165.5C 191.092,171.978 188.925,176.978 183.5,180.5C 181.565,181.15 179.565,181.483 177.5,181.5C 177.077,184.243 178.244,185.576 181,185.5C 183.215,185.1 185.048,184.1 186.5,182.5C 192.912,176.762 197.245,169.762 199.5,161.5C 200.831,158.873 202.664,156.54 205,154.5C 205.333,157.5 205.667,160.5 206,163.5C 207.122,161.376 208.622,159.543 210.5,158C 213.025,157.104 215.192,157.604 217,159.5C 216.998,165.854 216.498,172.188 215.5,178.5 Z"/></g>
<g><path style="opacity:1" fill="#eeb8d9" d="M 183.5,167.5 C 185.225,167.843 185.725,168.843 185,170.5C 183.667,173.167 181.667,175.167 179,176.5C 179.4,173.032 180.9,170.032 183.5,167.5 Z"/></g>
<g><path style="opacity:1" fill="#323a8f" d="M 240.5,166.5 C 240.5,168.167 240.5,169.833 240.5,171.5C 239.814,174.928 239.481,178.428 239.5,182C 233.431,183.445 230.598,180.945 231,174.5C 229.043,178.643 225.876,180.976 221.5,181.5C 220.542,181.047 219.708,180.381 219,179.5C 217.372,173.971 218.038,168.638 221,163.5C 224.702,158.116 229.702,154.783 236,153.5C 239.86,153.071 241.694,154.738 241.5,158.5C 230.834,159.001 225.334,164.668 225,175.5C 228.624,170.42 232.124,165.253 235.5,160C 236.944,159.219 238.277,159.386 239.5,160.5C 240.348,162.409 240.682,164.409 240.5,166.5 Z"/></g>
<g><path style="opacity:1" fill="#fbd1e5" d="M 260.5,135.5 C 263.64,134.359 266.973,134.192 270.5,135C 272.806,136.793 273.139,138.96 271.5,141.5C 274.743,148.904 273.743,155.57 268.5,161.5C 267.5,161.5 266.5,161.5 265.5,161.5C 265.719,162.675 265.386,163.675 264.5,164.5C 256.566,169.435 249.566,175.435 243.5,182.5C 239.746,184.81 235.746,186.643 231.5,188C 229.959,189.371 228.625,190.871 227.5,192.5C 226.504,192.586 225.671,192.252 225,191.5C 224.878,195.095 223.044,196.761 219.5,196.5C 219.5,197.833 219.5,199.167 219.5,200.5C 216.449,201.603 213.282,202.269 210,202.5C 207.225,202.591 204.725,201.924 202.5,200.5C 200.5,198.167 198.5,195.833 196.5,193.5C 201.817,194.134 207.15,194.134 212.5,193.5C 213.978,193.762 215.311,193.429 216.5,192.5C 214.347,187.841 214.013,183.175 215.5,178.5C 216.836,180.307 218.503,181.807 220.5,183C 223.875,183.632 224.209,183.132 221.5,181.5C 225.876,180.976 229.043,178.643 231,174.5C 230.598,180.945 233.431,183.445 239.5,182C 239.481,178.428 239.814,174.928 240.5,171.5C 240.369,172.239 240.536,172.906 241,173.5C 242.162,171.176 243.329,168.842 244.5,166.5C 245.086,166.709 245.586,167.043 246,167.5C 253.94,161.068 261.773,154.401 269.5,147.5C 270.167,146.5 270.833,145.5 271.5,144.5C 270.577,141.553 269.911,138.553 269.5,135.5C 266.5,135.5 263.5,135.5 260.5,135.5 Z"/></g>
<g><path style="opacity:1" fill="#fcd0e4" d="M 18.5,135.5 C 15.4816,135.335 12.4816,135.502 9.5,136C 12.1274,138.78 14.6274,141.614 17,144.5C 19.7689,150.729 23.9356,155.729 29.5,159.5C 30.1668,162.833 32.1668,164.167 35.5,163.5C 36.0922,172.679 39.4255,180.679 45.5,187.5C 42.2857,186.56 39.2857,185.06 36.5,183C 29.2582,175.594 21.2582,169.094 12.5,163.5C 8.57414,160.639 6.40747,156.639 6,151.5C 5.53111,148.056 6.03111,144.722 7.5,141.5C 5.84181,138.989 6.17514,136.822 8.5,135C 12.0267,134.192 15.3601,134.359 18.5,135.5 Z"/></g>
<g><path style="opacity:1" fill="#313b8f" d="M 88.5,140.5 C 89.4045,144.751 89.0712,149.084 87.5,153.5C 84.2561,164.629 82.4228,175.963 82,187.5C 84.4391,184.388 87.4391,182.055 91,180.5C 92.2613,180.759 93.2613,181.426 94,182.5C 94.4966,184.81 94.6633,187.143 94.5,189.5C 93.9627,194.186 93.296,198.853 92.5,203.5C 91.8461,207.839 92.8461,211.673 95.5,215C 91.5245,216.379 88.6912,215.213 87,211.5C 86.1816,208.893 85.6816,206.226 85.5,203.5C 86.5982,198.526 87.0982,193.526 87,188.5C 84.708,189.79 82.708,191.457 81,193.5C 79.8314,199.846 78.6647,206.18 77.5,212.5C 77.44,213.043 77.1067,213.376 76.5,213.5C 75.4822,212.807 74.4822,212.141 73.5,211.5C 73.5,210.5 73.5,209.5 73.5,208.5C 73.184,196.764 73.8507,185.097 75.5,173.5C 77.6834,164.423 80.5168,155.423 84,146.5C 85.332,144.34 86.832,142.34 88.5,140.5 Z"/></g>
<g><path style="opacity:1" fill="#313a8f" d="M 158.5,167.5 C 164.74,167.294 167.24,170.294 166,176.5C 163.7,182.892 159.2,186.225 152.5,186.5C 152.33,187.822 152.663,188.989 153.5,190C 155.5,190.667 157.5,190.667 159.5,190C 163.027,187.638 166.027,184.804 168.5,181.5C 168.831,183.322 169.498,184.989 170.5,186.5C 169.883,186.389 169.383,186.056 169,185.5C 165.258,190.263 160.758,193.929 155.5,196.5C 150.377,196.613 147.043,194.28 145.5,189.5C 144.579,183.025 146.245,177.359 150.5,172.5C 152.655,170.011 155.322,168.344 158.5,167.5 Z"/></g>
<g><path style="opacity:1" fill="#ebafd2" d="M 159.5,172.5 C 161.225,172.843 161.725,173.843 161,175.5C 159.758,178.855 157.591,180.189 154.5,179.5C 155.804,176.87 157.47,174.537 159.5,172.5 Z"/></g>
<g><path style="opacity:1" fill="#323c90" d="M 58.5,138.5 C 61.8499,138.335 65.1832,138.502 68.5,139C 70.687,140.025 72.3536,141.525 73.5,143.5C 72.9627,149.908 70.296,155.241 65.5,159.5C 64.1667,159.5 63.5,160.167 63.5,161.5C 60.9884,162.928 58.3217,163.428 55.5,163C 60.6667,160.5 64.5,156.667 67,151.5C 68.2121,148.166 67.3788,145.666 64.5,144C 59.3425,143.895 54.6758,145.562 50.5,149C 41.2638,158.779 41.5971,168.279 51.5,177.5C 53.7514,181.917 56.5848,185.917 60,189.5C 71.5308,184.991 72.1975,185.991 62,192.5C 61.9522,199.637 61.1189,206.637 59.5,213.5C 58.1667,216.167 56.8333,218.833 55.5,221.5C 50.2795,227.779 43.9462,232.612 36.5,236C 27.6625,237.149 24.4959,233.316 27,224.5C 29.8264,217.506 33.6597,211.173 38.5,205.5C 42.1026,202.739 45.6026,199.739 49,196.5C 49.5193,192.868 48.3526,189.868 45.5,187.5C 39.4255,180.679 36.0922,172.679 35.5,163.5C 37.5161,156.486 41.1828,150.486 46.5,145.5C 47.8717,144.488 49.205,143.488 50.5,142.5C 53.2054,141.147 55.8721,139.814 58.5,138.5 Z M 41.5,210.5 C 47.3736,210.705 50.0403,213.705 49.5,219.5C 45.3788,224.78 40.2122,228.78 34,231.5C 31.0636,229.237 30.7303,226.57 33,223.5C 35.3463,218.796 38.1796,214.463 41.5,210.5 Z"/></g>
<g><path style="opacity:1" fill="#f5d0e7" d="M 183.5,180.5 C 184.778,180.782 185.778,181.449 186.5,182.5C 185.048,184.1 183.215,185.1 181,185.5C 178.244,185.576 177.077,184.243 177.5,181.5C 179.565,181.483 181.565,181.15 183.5,180.5 Z"/></g>
<g><path style="opacity:1" fill="#fcdfed" d="M 12.5,163.5 C 21.2582,169.094 29.2582,175.594 36.5,183C 39.2857,185.06 42.2857,186.56 45.5,187.5C 48.3526,189.868 49.5193,192.868 49,196.5C 45.6026,199.739 42.1026,202.739 38.5,205.5C 33.2437,197.73 27.7437,190.064 22,182.5C 21.5439,181.256 22.0439,180.423 23.5,180C 19.626,174.428 15.9593,168.928 12.5,163.5 Z"/></g>
<g><path style="opacity:1" fill="#fde1ee" d="M 268.5,161.5 C 267.24,164.596 265.074,166.929 262,168.5C 260.552,174.452 257.052,178.785 251.5,181.5C 253.413,182.051 255.413,182.218 257.5,182C 255.181,186.162 252.514,189.995 249.5,193.5C 248.287,192.048 248.62,190.714 250.5,189.5C 250.167,188.5 249.5,187.833 248.5,187.5C 241.805,189.369 235.972,192.702 231,197.5C 229.331,196.154 228.164,194.487 227.5,192.5C 228.625,190.871 229.959,189.371 231.5,188C 235.746,186.643 239.746,184.81 243.5,182.5C 249.566,175.435 256.566,169.435 264.5,164.5C 265.386,163.675 265.719,162.675 265.5,161.5C 266.5,161.5 267.5,161.5 268.5,161.5 Z"/></g>
<g><path style="opacity:1" fill="#343b8f" d="M 119.5,203.5 C 119.512,206.142 118.179,207.475 115.5,207.5C 114.833,207.5 114.167,207.5 113.5,207.5C 111.284,204.963 110.117,201.963 110,198.5C 108.182,203.802 104.682,206.135 99.5,205.5C 97.8258,203.651 96.8258,201.484 96.5,199C 97.2755,196.178 97.9421,193.344 98.5,190.5C 101.548,185.119 105.881,181.119 111.5,178.5C 113.06,178.481 114.56,178.148 116,177.5C 121.148,178.908 121.648,181.074 117.5,184C 118.93,185.907 119.596,188.074 119.5,190.5C 118.426,194.999 118.426,199.333 119.5,203.5 Z"/></g>
<g><path style="opacity:1" fill="#fad2e6" d="M 65.5,159.5 C 67.9586,161.052 69.4586,163.385 70,166.5C 71.6667,167.5 73.3333,168.5 75,169.5C 75.49,170.793 75.6567,172.127 75.5,173.5C 73.8507,185.097 73.184,196.764 73.5,208.5C 72.5318,206.393 72.1984,204.059 72.5,201.5C 70.712,201.215 69.0453,201.548 67.5,202.5C 71.5091,206.824 71.1757,210.824 66.5,214.5C 65.6143,213.675 65.281,212.675 65.5,211.5C 63.3146,211.704 61.3146,212.37 59.5,213.5C 61.1189,206.637 61.9522,199.637 62,192.5C 72.1975,185.991 71.5308,184.991 60,189.5C 56.5848,185.917 53.7514,181.917 51.5,177.5C 54.7452,177.97 57.5786,179.303 60,181.5C 60.239,178.303 59.0723,175.636 56.5,173.5C 58.522,170.644 61.022,168.311 64,166.5C 64.7796,164.613 64.6129,162.946 63.5,161.5C 63.5,160.167 64.1667,159.5 65.5,159.5 Z"/></g>
<g><path style="opacity:1" fill="#323b8f" d="M 141.5,182.5 C 140.71,181.391 140.21,180.058 140,178.5C 137.481,180.211 135.981,182.545 135.5,185.5C 133.342,189.507 132.009,193.84 131.5,198.5C 130.935,200.903 129.435,202.57 127,203.5C 126.055,203.095 125.388,202.428 125,201.5C 125.165,193.833 125.665,186.166 126.5,178.5C 127.11,177.609 127.443,176.609 127.5,175.5C 129.142,173.919 131.142,173.253 133.5,173.5C 133.34,175.199 133.506,176.866 134,178.5C 135.581,173.293 139.081,170.959 144.5,171.5C 146.438,176.093 145.438,179.76 141.5,182.5 Z"/></g>
<g><path style="opacity:1" fill="#f8c0db" d="M 212.5,193.5 C 207.15,194.134 201.817,194.134 196.5,193.5C 194.115,190.788 191.782,188.122 189.5,185.5C 191.113,182.714 192.946,180.047 195,177.5C 195.27,180.224 195.77,182.891 196.5,185.5C 197.651,186.731 198.817,186.731 200,185.5C 203.519,178.621 206.852,171.621 210,164.5C 208.715,172.746 208.382,181.079 209,189.5C 210.376,190.705 211.542,192.038 212.5,193.5 Z"/></g>
<g><path style="opacity:1" fill="#ecb5d7" d="M 112.5,183.5 C 113.376,183.369 114.043,183.702 114.5,184.5C 111.402,189.709 108.068,194.709 104.5,199.5C 104.434,192.964 107.101,187.63 112.5,183.5 Z"/></g>
<g><path style="opacity:1" fill="#fdd5e7" d="M 249.5,193.5 C 249.649,194.552 249.483,195.552 249,196.5C 245.407,200.04 242.574,204.04 240.5,208.5C 240.775,203.78 239.941,203.446 238,207.5C 237.088,209.659 236.255,211.825 235.5,214C 237.271,214.535 237.604,215.369 236.5,216.5C 234.912,214.887 233.912,212.887 233.5,210.5C 232.675,209.614 231.675,209.281 230.5,209.5C 230.592,205.941 229.759,202.608 228,199.5C 227.027,201.64 225.527,203.307 223.5,204.5C 222.667,206.5 221.833,208.5 221,210.5C 219.396,211.649 217.73,211.649 216,210.5C 214.523,211.444 213.523,212.777 213,214.5C 209.628,209.643 206.128,204.977 202.5,200.5C 204.725,201.924 207.225,202.591 210,202.5C 213.282,202.269 216.449,201.603 219.5,200.5C 219.5,199.167 219.5,197.833 219.5,196.5C 223.044,196.761 224.878,195.095 225,191.5C 225.671,192.252 226.504,192.586 227.5,192.5C 228.164,194.487 229.331,196.154 231,197.5C 235.972,192.702 241.805,189.369 248.5,187.5C 249.5,187.833 250.167,188.5 250.5,189.5C 248.62,190.714 248.287,192.048 249.5,193.5 Z"/></g>
<g><path style="opacity:1" fill="#fbc3dc" d="M 186.5,187.5 C 189.035,195.561 193.368,202.561 199.5,208.5C 201.071,209.309 202.738,209.643 204.5,209.5C 204.348,213.883 206.015,217.383 209.5,220C 208.207,220.49 206.873,220.657 205.5,220.5C 205.664,223.187 205.497,225.854 205,228.5C 204.329,227.748 203.496,227.414 202.5,227.5C 200.849,226.03 199.015,224.697 197,223.5C 195.963,219.933 194.796,216.433 193.5,213C 193.833,212.667 194.167,212.333 194.5,212C 191.787,208.894 189.62,205.394 188,201.5C 184.34,198.466 181.174,195.133 178.5,191.5C 181.446,190.694 184.112,189.361 186.5,187.5 Z"/></g>
<g><path style="opacity:1" fill="#fcd4e7" d="M 170.5,186.5 C 171.111,188.775 172.445,190.441 174.5,191.5C 176.388,194.899 178.888,197.899 182,200.5C 182.301,203.98 183.135,207.313 184.5,210.5C 183.037,212.289 182.037,214.289 181.5,216.5C 180.833,216.833 180.167,217.167 179.5,217.5C 176.259,212.726 172.259,208.559 167.5,205C 164.233,203.085 162.9,204.252 163.5,208.5C 159.362,205.627 156.695,201.627 155.5,196.5C 160.758,193.929 165.258,190.263 169,185.5C 169.383,186.056 169.883,186.389 170.5,186.5 Z"/></g>
<g><path style="opacity:1" fill="#fbc5dc" d="M 135.5,185.5 C 138.526,189.528 141.193,193.861 143.5,198.5C 142.414,198.62 141.747,199.287 141.5,200.5C 142.883,202.978 143.883,205.645 144.5,208.5C 144.081,209.672 143.415,210.672 142.5,211.5C 144.483,213.984 146.65,216.317 149,218.5C 149.333,220.167 149.667,221.833 150,223.5C 150.333,222.833 150.667,222.167 151,221.5C 152.467,224.758 153.633,228.092 154.5,231.5C 156.619,231.468 157.952,232.468 158.5,234.5C 156.833,235.167 155.167,235.833 153.5,236.5C 153.719,235.325 153.386,234.325 152.5,233.5C 146.538,227.581 141.038,221.248 136,214.5C 132.889,213.718 130.723,211.885 129.5,209C 131.044,205.661 131.71,202.161 131.5,198.5C 132.009,193.84 133.342,189.507 135.5,185.5 Z"/></g>
<g><path style="opacity:1" fill="#faafd0" d="M 174.5,191.5 C 175.833,191.5 177.167,191.5 178.5,191.5C 181.174,195.133 184.34,198.466 188,201.5C 189.62,205.394 191.787,208.894 194.5,212C 194.167,212.333 193.833,212.667 193.5,213C 194.796,216.433 195.963,219.933 197,223.5C 199.015,224.697 200.849,226.03 202.5,227.5C 203.716,229.451 205.382,230.951 207.5,232C 209.852,232.24 211.852,233.073 213.5,234.5C 212.13,236.25 211.13,238.25 210.5,240.5C 209.596,239.791 209.263,238.791 209.5,237.5C 207.936,234.523 205.603,233.856 202.5,235.5C 202.5,234.167 202.5,232.833 202.5,231.5C 201.167,231.5 199.833,231.5 198.5,231.5C 198.67,230.178 198.337,229.011 197.5,228C 192.267,223.919 186.933,220.085 181.5,216.5C 182.037,214.289 183.037,212.289 184.5,210.5C 183.135,207.313 182.301,203.98 182,200.5C 178.888,197.899 176.388,194.899 174.5,191.5 Z"/></g>
<g><path style="opacity:1" fill="#fddeec" d="M 189.5,185.5 C 191.782,188.122 194.115,190.788 196.5,193.5C 198.5,195.833 200.5,198.167 202.5,200.5C 206.128,204.977 209.628,209.643 213,214.5C 213.523,212.777 214.523,211.444 216,210.5C 217.73,211.649 219.396,211.649 221,210.5C 221.833,208.5 222.667,206.5 223.5,204.5C 225.527,203.307 227.027,201.64 228,199.5C 229.759,202.608 230.592,205.941 230.5,209.5C 231.231,214.041 230.231,218.041 227.5,221.5C 223.605,223.483 219.605,224.149 215.5,223.5C 217.018,227.43 218.018,231.43 218.5,235.5C 217.329,236.345 215.995,237.011 214.5,237.5C 214.443,236.391 214.11,235.391 213.5,234.5C 211.852,233.073 209.852,232.24 207.5,232C 205.382,230.951 203.716,229.451 202.5,227.5C 203.496,227.414 204.329,227.748 205,228.5C 205.497,225.854 205.664,223.187 205.5,220.5C 206.873,220.657 208.207,220.49 209.5,220C 206.015,217.383 204.348,213.883 204.5,209.5C 202.738,209.643 201.071,209.309 199.5,208.5C 193.368,202.561 189.035,195.561 186.5,187.5C 187.5,186.833 188.5,186.167 189.5,185.5 Z"/></g>
<g><path style="opacity:0.989" fill="#f9dfee" d="M 49.5,219.5 C 50.0403,213.705 47.3736,210.705 41.5,210.5C 44.4518,206.881 47.7852,203.548 51.5,200.5C 54.5866,207.305 53.9199,213.639 49.5,219.5 Z"/></g>
<g><path style="opacity:1" fill="#f7b1d0" d="M 115.5,207.5 C 118.179,207.475 119.512,206.142 119.5,203.5C 119.351,202.448 119.517,201.448 120,200.5C 122.5,202.333 125,204.167 127.5,206C 121.809,206.477 120.476,208.977 123.5,213.5C 122.372,214.262 121.205,214.929 120,215.5C 118.833,214.333 117.667,213.167 116.5,212C 117.167,211.667 117.833,211.333 118.5,211C 117.29,209.961 116.29,208.794 115.5,207.5 Z"/></g>
<g><path style="opacity:1" fill="#fde1ef" d="M 141.5,182.5 C 142.209,183.404 143.209,183.737 144.5,183.5C 144.205,185.735 144.539,187.735 145.5,189.5C 147.043,194.28 150.377,196.613 155.5,196.5C 156.695,201.627 159.362,205.627 163.5,208.5C 164.045,210.593 164.878,212.593 166,214.5C 169.262,217.092 171.762,220.259 173.5,224C 170.958,222.266 167.958,221.266 164.5,221C 161.264,218.132 157.764,215.632 154,213.5C 150.251,208.599 146.751,203.599 143.5,198.5C 141.193,193.861 138.526,189.528 135.5,185.5C 135.981,182.545 137.481,180.211 140,178.5C 140.21,180.058 140.71,181.391 141.5,182.5 Z"/></g>
<g><path style="opacity:0.981" fill="#fde2ee" d="M 73.5,208.5 C 73.5,209.5 73.5,210.5 73.5,211.5C 72.5527,214.677 71.2193,217.677 69.5,220.5C 70.8333,221.167 72.1667,221.833 73.5,222.5C 71.5755,226.573 72.5755,228.406 76.5,228C 73.8239,230.666 70.8239,232.833 67.5,234.5C 65.8613,234.808 64.0279,234.808 62,234.5C 61.2228,231.571 61.3895,228.737 62.5,226C 61.1587,222.994 58.8254,221.494 55.5,221.5C 56.8333,218.833 58.1667,216.167 59.5,213.5C 61.3146,212.37 63.3146,211.704 65.5,211.5C 65.281,212.675 65.6143,213.675 66.5,214.5C 71.1757,210.824 71.5091,206.824 67.5,202.5C 69.0453,201.548 70.712,201.215 72.5,201.5C 72.1984,204.059 72.5318,206.393 73.5,208.5 Z"/></g>
<g><path style="opacity:1" fill="#f9cde2" d="M 98.5,190.5 C 97.9421,193.344 97.2755,196.178 96.5,199C 96.8258,201.484 97.8258,203.651 99.5,205.5C 104.682,206.135 108.182,203.802 110,198.5C 110.117,201.963 111.284,204.963 113.5,207.5C 112.498,209.011 111.831,210.678 111.5,212.5C 113.809,216.124 114.976,220.124 115,224.5C 116.746,229.664 119.246,234.33 122.5,238.5C 121.701,241.43 121.368,244.43 121.5,247.5C 122.263,248.268 123.263,248.768 124.5,249C 123.978,249.561 123.645,250.228 123.5,251C 125.374,252.86 126.374,255.194 126.5,258C 126.302,260.121 125.636,261.954 124.5,263.5C 123.262,264.412 121.928,264.579 120.5,264C 122.037,262.89 122.703,261.39 122.5,259.5C 120.738,259.643 119.071,259.309 117.5,258.5C 114.543,262.505 110.877,263.839 106.5,262.5C 108.248,261.211 108.581,259.711 107.5,258C 110.381,256.749 112.214,254.583 113,251.5C 114.049,252.517 115.216,252.684 116.5,252C 113.833,251.333 113.833,250.667 116.5,250C 113.779,241.961 111.279,233.794 109,225.5C 104.636,217.417 99.8032,209.751 94.5,202.5C 93.8933,202.624 93.56,202.957 93.5,203.5C 93.1667,203.5 92.8333,203.5 92.5,203.5C 93.296,198.853 93.9627,194.186 94.5,189.5C 95.9582,187.145 97.2915,187.478 98.5,190.5 Z"/></g>
<g><path style="opacity:1" fill="#fbd3e6" d="M 119.5,176.5 C 122.188,176.166 124.521,176.832 126.5,178.5C 125.665,186.166 125.165,193.833 125,201.5C 125.388,202.428 126.055,203.095 127,203.5C 129.435,202.57 130.935,200.903 131.5,198.5C 131.71,202.161 131.044,205.661 129.5,209C 130.723,211.885 132.889,213.718 136,214.5C 141.038,221.248 146.538,227.581 152.5,233.5C 153.386,234.325 153.719,235.325 153.5,236.5C 151.804,238.525 150.137,240.525 148.5,242.5C 148.167,242.5 147.833,242.5 147.5,242.5C 148.156,240.516 148.822,238.516 149.5,236.5C 149.167,235.833 148.833,235.167 148.5,234.5C 147.438,236.022 146.771,237.688 146.5,239.5C 145.508,239.672 144.842,239.338 144.5,238.5C 144.719,237.325 144.386,236.325 143.5,235.5C 142.893,235.624 142.56,235.957 142.5,236.5C 138.336,233.168 134.669,229.335 131.5,225C 124.642,221.075 117.975,216.908 111.5,212.5C 111.831,210.678 112.498,209.011 113.5,207.5C 114.167,207.5 114.833,207.5 115.5,207.5C 116.29,208.794 117.29,209.961 118.5,211C 117.833,211.333 117.167,211.667 116.5,212C 117.667,213.167 118.833,214.333 120,215.5C 121.205,214.929 122.372,214.262 123.5,213.5C 120.476,208.977 121.809,206.477 127.5,206C 125,204.167 122.5,202.333 120,200.5C 119.517,201.448 119.351,202.448 119.5,203.5C 118.426,199.333 118.426,194.999 119.5,190.5C 119.596,188.074 118.93,185.907 117.5,184C 121.648,181.074 121.148,178.908 116,177.5C 114.56,178.148 113.06,178.481 111.5,178.5C 113.78,176.777 116.447,176.111 119.5,176.5 Z"/></g>
<g><path style="opacity:1" fill="#f9b0cf" d="M 143.5,198.5 C 146.751,203.599 150.251,208.599 154,213.5C 157.764,215.632 161.264,218.132 164.5,221C 167.958,221.266 170.958,222.266 173.5,224C 171.762,220.259 169.262,217.092 166,214.5C 164.878,212.593 164.045,210.593 163.5,208.5C 162.9,204.252 164.233,203.085 167.5,205C 172.259,208.559 176.259,212.726 179.5,217.5C 179.675,219.621 179.341,221.621 178.5,223.5C 177.402,224.601 177.235,225.934 178,227.5C 181.79,231.138 185.957,234.138 190.5,236.5C 187.22,239.405 185.887,243.071 186.5,247.5C 185.691,245.708 185.191,243.708 185,241.5C 184.489,243.878 183.822,246.212 183,248.5C 181.933,249.191 180.766,249.691 179.5,250C 181.388,252.19 183.555,254.023 186,255.5C 187.128,257.345 187.628,259.345 187.5,261.5C 186.198,263.822 184.198,265.155 181.5,265.5C 180.127,265.657 178.793,265.49 177.5,265C 178.963,261.883 179.296,258.717 178.5,255.5C 176.808,253.795 175.475,251.795 174.5,249.5C 173.675,248.614 172.675,248.281 171.5,248.5C 173.631,247.686 175.964,247.186 178.5,247C 179.741,245.513 179.241,244.68 177,244.5C 174.403,244.94 171.903,245.607 169.5,246.5C 169.167,246.5 168.833,246.5 168.5,246.5C 169.342,243.476 170.342,240.476 171.5,237.5C 171.167,236.833 170.833,236.167 170.5,235.5C 168.991,239.518 166.491,242.851 163,245.5C 163.063,242.513 163.897,239.68 165.5,237C 163.807,236.516 162.473,237.016 161.5,238.5C 161.5,237.833 161.167,237.5 160.5,237.5C 160.573,235.973 159.906,234.973 158.5,234.5C 157.952,232.468 156.619,231.468 154.5,231.5C 153.633,228.092 152.467,224.758 151,221.5C 150.667,222.167 150.333,222.833 150,223.5C 149.667,221.833 149.333,220.167 149,218.5C 146.65,216.317 144.483,213.984 142.5,211.5C 143.415,210.672 144.081,209.672 144.5,208.5C 143.883,205.645 142.883,202.978 141.5,200.5C 141.747,199.287 142.414,198.62 143.5,198.5 Z"/></g>
<g><path style="opacity:1" fill="#f8b6d4" d="M 111.5,212.5 C 117.975,216.908 124.642,221.075 131.5,225C 134.669,229.335 138.336,233.168 142.5,236.5C 141.073,239.024 139.906,241.69 139,244.5C 138.502,241.518 138.335,238.518 138.5,235.5C 134.856,235.708 132.689,237.708 132,241.5C 131.82,239.512 131.986,237.512 132.5,235.5C 131.5,235.5 130.5,235.5 129.5,235.5C 129.68,239.847 127.847,243.181 124,245.5C 123.802,242.422 124.635,239.588 126.5,237C 124.771,235.455 123.438,235.955 122.5,238.5C 119.246,234.33 116.746,229.664 115,224.5C 114.976,220.124 113.809,216.124 111.5,212.5 Z"/></g>
<g><path style="opacity:1" fill="#fcdeed" d="M 92.5,203.5 C 92.8333,203.5 93.1667,203.5 93.5,203.5C 97.1164,211.507 100.45,219.674 103.5,228C 103.355,228.772 103.022,229.439 102.5,230C 103.991,232.621 104.658,235.455 104.5,238.5C 103.178,238.33 102.011,238.663 101,239.5C 100.652,243.817 98.4855,245.983 94.5,246C 94.0426,245.586 93.7093,245.086 93.5,244.5C 94.8333,243.833 96.1667,243.167 97.5,242.5C 96.0966,240.269 94.9299,237.936 94,235.5C 92.6012,234.773 91.1012,234.273 89.5,234C 91.019,232.649 92.3523,231.149 93.5,229.5C 92.0521,228.646 90.7187,227.646 89.5,226.5C 88.135,227.807 86.8016,227.807 85.5,226.5C 85.4142,225.504 85.7476,224.671 86.5,224C 84.3247,219.463 81.3247,215.629 77.5,212.5C 78.6647,206.18 79.8314,199.846 81,193.5C 82.708,191.457 84.708,189.79 87,188.5C 87.0982,193.526 86.5982,198.526 85.5,203.5C 85.6816,206.226 86.1816,208.893 87,211.5C 88.6912,215.213 91.5245,216.379 95.5,215C 92.8461,211.673 91.8461,207.839 92.5,203.5 Z"/></g>
<g><path style="opacity:1" fill="#fdd2e5" d="M 93.5,203.5 C 93.56,202.957 93.8933,202.624 94.5,202.5C 99.8032,209.751 104.636,217.417 109,225.5C 111.279,233.794 113.779,241.961 116.5,250C 113.833,250.667 113.833,251.333 116.5,252C 115.216,252.684 114.049,252.517 113,251.5C 112.214,254.583 110.381,256.749 107.5,258C 108.581,259.711 108.248,261.211 106.5,262.5C 104.956,262.703 103.622,263.37 102.5,264.5C 100.231,262.201 99.898,259.534 101.5,256.5C 99.077,251.707 96.2436,251.707 93,256.5C 92.4436,258.885 92.6103,261.218 93.5,263.5C 90.5677,262.2 88.2344,260.2 86.5,257.5C 85.8951,254.873 85.3951,252.207 85,249.5C 83.174,246.218 81.674,242.884 80.5,239.5C 78.4727,239.338 76.4727,239.505 74.5,240C 76.0779,242.339 75.7446,244.172 73.5,245.5C 73.169,242.962 71.8357,241.296 69.5,240.5C 70.5,240.5 71.5,240.5 72.5,240.5C 72.3505,239.448 72.5172,238.448 73,237.5C 74.1131,238.711 75.2798,238.711 76.5,237.5C 77.6589,233.579 80.3255,231.579 84.5,231.5C 85.4519,229.955 85.7852,228.288 85.5,226.5C 86.8016,227.807 88.135,227.807 89.5,226.5C 90.7187,227.646 92.0521,228.646 93.5,229.5C 92.3523,231.149 91.019,232.649 89.5,234C 91.1012,234.273 92.6012,234.773 94,235.5C 94.9299,237.936 96.0966,240.269 97.5,242.5C 96.1667,243.167 94.8333,243.833 93.5,244.5C 93.7093,245.086 94.0426,245.586 94.5,246C 98.4855,245.983 100.652,243.817 101,239.5C 102.011,238.663 103.178,238.33 104.5,238.5C 104.658,235.455 103.991,232.621 102.5,230C 103.022,229.439 103.355,228.772 103.5,228C 100.45,219.674 97.1164,211.507 93.5,203.5 Z"/></g>
<g><path style="opacity:1" fill="#fbc1db" d="M 181.5,216.5 C 186.933,220.085 192.267,223.919 197.5,228C 198.337,229.011 198.67,230.178 198.5,231.5C 199.833,231.5 201.167,231.5 202.5,231.5C 202.5,232.833 202.5,234.167 202.5,235.5C 202.5,236.167 202.167,236.5 201.5,236.5C 200.167,236.5 198.833,236.5 197.5,236.5C 195.958,235.699 194.292,235.366 192.5,235.5C 191.241,232.634 190.241,229.634 189.5,226.5C 185.39,226.61 181.723,225.61 178.5,223.5C 179.341,221.621 179.675,219.621 179.5,217.5C 180.167,217.167 180.833,216.833 181.5,216.5 Z"/></g>
<g><path style="opacity:1" fill="#f8b5d2" d="M 240.5,208.5 C 241.934,211.698 242.434,215.032 242,218.5C 238.654,225.185 233.487,229.685 226.5,232C 225.177,232.816 224.511,233.983 224.5,235.5C 223.833,235.5 223.167,235.5 222.5,235.5C 221.472,235.074 220.139,235.074 218.5,235.5C 218.018,231.43 217.018,227.43 215.5,223.5C 219.605,224.149 223.605,223.483 227.5,221.5C 230.231,218.041 231.231,214.041 230.5,209.5C 231.675,209.281 232.675,209.614 233.5,210.5C 233.912,212.887 234.912,214.887 236.5,216.5C 237.604,215.369 237.271,214.535 235.5,214C 236.255,211.825 237.088,209.659 238,207.5C 239.941,203.446 240.775,203.78 240.5,208.5 Z"/></g>
<g><path style="opacity:1" fill="#fabbd7" d="M 73.5,211.5 C 74.4822,212.141 75.4822,212.807 76.5,213.5C 77.1067,213.376 77.44,213.043 77.5,212.5C 81.3247,215.629 84.3247,219.463 86.5,224C 85.7476,224.671 85.4142,225.504 85.5,226.5C 85.7852,228.288 85.4519,229.955 84.5,231.5C 80.3255,231.579 77.6589,233.579 76.5,237.5C 75.2798,238.711 74.1131,238.711 73,237.5C 72.5172,238.448 72.3505,239.448 72.5,240.5C 71.5,240.5 70.5,240.5 69.5,240.5C 68.1667,240.5 66.8333,240.5 65.5,240.5C 65.6036,238.297 66.2702,236.297 67.5,234.5C 70.8239,232.833 73.8239,230.666 76.5,228C 72.5755,228.406 71.5755,226.573 73.5,222.5C 72.1667,221.833 70.8333,221.167 69.5,220.5C 71.2193,217.677 72.5527,214.677 73.5,211.5 Z"/></g>
<g><path style="opacity:1" fill="#fcdaea" d="M 178.5,223.5 C 181.723,225.61 185.39,226.61 189.5,226.5C 190.241,229.634 191.241,232.634 192.5,235.5C 191.833,235.833 191.167,236.167 190.5,236.5C 185.957,234.138 181.79,231.138 178,227.5C 177.235,225.934 177.402,224.601 178.5,223.5 Z"/></g>
<g><path style="opacity:0.712" fill="#777cad" d="M 233.5,235.5 C 236.024,234.2 238.691,234.2 241.5,235.5C 241.376,236.107 241.043,236.44 240.5,236.5C 238.393,235.532 236.059,235.198 233.5,235.5 Z"/></g>
<g><path style="opacity:1" fill="#595ca0" d="M 289.5,238.5 C 288.833,238.5 288.5,238.833 288.5,239.5C 287.16,243.324 284.993,246.657 282,249.5C 281.206,246.529 280.539,243.529 280,240.5C 278.985,243.21 277.485,245.543 275.5,247.5C 274.749,246.624 274.249,245.624 274,244.5C 268.048,250.644 264.548,249.644 263.5,241.5C 266.244,238.589 269.41,236.256 273,234.5C 275.965,234.438 276.798,235.605 275.5,238C 276,238.5 276.5,239 277,239.5C 277.667,238.167 278.333,236.833 279,235.5C 279.718,234.549 280.551,234.383 281.5,235C 282.525,237.071 283.358,239.238 284,241.5C 284.778,238.816 286.111,236.483 288,234.5C 289.188,235.563 289.688,236.897 289.5,238.5 Z M 271.5,237.5 C 273.225,237.843 273.725,238.843 273,240.5C 271.595,242.651 269.761,244.318 267.5,245.5C 266.417,244.635 266.251,243.635 267,242.5C 268.193,240.503 269.693,238.836 271.5,237.5 Z"/></g>
<g><path style="opacity:1" fill="#524a95" d="M 174.5,234.5 C 184.81,234.346 185.144,235.846 175.5,239C 177.384,239.216 179.051,239.883 180.5,241C 177.391,241.644 174.557,242.811 172,244.5C 172.096,241.033 172.93,237.7 174.5,234.5 Z"/></g>
<g><path style="opacity:0.537" fill="#a0a5cb" d="M 240.5,236.5 C 239.22,237.931 237.553,238.598 235.5,238.5C 236.552,236.744 238.219,236.077 240.5,236.5 Z"/></g>
<g><path style="opacity:1" fill="#3e3f8c" d="M 192.5,235.5 C 194.292,235.366 195.958,235.699 197.5,236.5C 192.201,237.133 189.201,240.133 188.5,245.5C 196.155,243.854 196.488,244.854 189.5,248.5C 188.583,247.873 187.583,247.539 186.5,247.5C 185.887,243.071 187.22,239.405 190.5,236.5C 191.167,236.167 191.833,235.833 192.5,235.5 Z"/></g>
<g><path style="opacity:1" fill="#3c4392" d="M 296.5,236.5 C 293.481,236.972 292.481,238.472 293.5,241C 292.552,241.483 291.552,241.649 290.5,241.5C 289.5,241.167 288.833,240.5 288.5,239.5C 289.167,239.5 289.5,239.167 289.5,238.5C 291.471,237.177 293.471,235.844 295.5,234.5C 296.298,234.957 296.631,235.624 296.5,236.5 Z"/></g>
<g><path style="opacity:1" fill="#4b4892" d="M 102.5,239.5 C 110.988,239.636 111.321,240.636 103.5,242.5C 102.614,241.675 102.281,240.675 102.5,239.5 Z"/></g>
<g><path style="opacity:0.898" fill="#b8b0d4" d="M 209.5,237.5 C 209.263,238.791 209.596,239.791 210.5,240.5C 210.843,242.483 210.176,243.817 208.5,244.5C 207.833,244.5 207.5,244.833 207.5,245.5C 207.167,245.5 206.833,245.5 206.5,245.5C 207.751,242.868 208.751,240.201 209.5,237.5 Z"/></g>
<g><path style="opacity:1" fill="#44458f" d="M 158.5,234.5 C 159.906,234.973 160.573,235.973 160.5,237.5C 160.602,239.756 160.268,242.089 159.5,244.5C 156.77,245.511 156.103,247.178 157.5,249.5C 155.813,250.726 154.313,250.392 153,248.5C 151.838,249.187 150.672,249.353 149.5,249C 148.577,246.959 148.244,244.792 148.5,242.5C 150.137,240.525 151.804,238.525 153.5,236.5C 155.167,235.833 156.833,235.167 158.5,234.5 Z"/></g>
<g><path style="opacity:1" fill="#e9cee6" d="M 156.5,237.5 C 158.344,238.204 158.844,239.537 158,241.5C 157.085,242.328 156.419,243.328 156,244.5C 155.667,244.167 155.333,243.833 155,243.5C 153.794,246.06 152.294,246.56 150.5,245C 151.622,241.72 153.622,239.22 156.5,237.5 Z"/></g>
<g><path style="opacity:1" fill="#9487bb" d="M 160.5,237.5 C 161.167,237.5 161.5,237.833 161.5,238.5C 161.682,240.591 161.348,242.591 160.5,244.5C 161.188,245.855 162.188,246.855 163.5,247.5C 161.04,248.634 159.707,247.634 159.5,244.5C 160.268,242.089 160.602,239.756 160.5,237.5 Z"/></g>
<g><path style="opacity:1" fill="#5b5da0" d="M 263.5,241.5 C 262.065,243.598 260.898,245.931 260,248.5C 259.282,249.451 258.449,249.617 257.5,249C 258.235,245.307 259.568,241.473 261.5,237.5C 260.635,236.417 259.635,236.251 258.5,237C 256.723,240.209 255.057,243.376 253.5,246.5C 252.596,245.791 252.263,244.791 252.5,243.5C 254.579,238.409 252.912,236.576 247.5,238C 243.818,239.32 242.318,241.82 243,245.5C 244.667,244.5 246.333,243.5 248,242.5C 249.688,243.325 249.855,244.325 248.5,245.5C 246.08,248.077 243.08,249.077 239.5,248.5C 239.5,246.167 239.5,243.833 239.5,241.5C 241.547,238.293 244.381,235.959 248,234.5C 253.34,234.481 258.84,234.647 264.5,235C 264.833,235.333 265.167,235.667 265.5,236C 264.536,237.725 263.869,239.559 263.5,241.5 Z"/></g>
<g><path style="opacity:1" fill="#403f8c" d="M 147.5,242.5 C 146.812,245.057 145.646,247.391 144,249.5C 143.585,245.828 144.418,242.495 146.5,239.5C 146.771,237.688 147.438,236.022 148.5,234.5C 148.833,235.167 149.167,235.833 149.5,236.5C 148.822,238.516 148.156,240.516 147.5,242.5 Z"/></g>
<g><path style="opacity:0.984" fill="#fde2ee" d="M 86.5,257.5 C 84.8523,256.19 83.1856,254.857 81.5,253.5C 80.549,254.326 79.549,254.492 78.5,254C 77.4654,250.76 75.7988,247.926 73.5,245.5C 75.7446,244.172 76.0779,242.339 74.5,240C 76.4727,239.505 78.4727,239.338 80.5,239.5C 81.674,242.884 83.174,246.218 85,249.5C 85.3951,252.207 85.8951,254.873 86.5,257.5 Z"/></g>
<g><path style="opacity:1" fill="#3d3f8e" d="M 142.5,236.5 C 142.56,235.957 142.893,235.624 143.5,235.5C 144.386,236.325 144.719,237.325 144.5,238.5C 142.983,242.041 140.983,245.374 138.5,248.5C 137.226,245.633 136.393,242.633 136,239.5C 134.644,241.898 133.477,244.398 132.5,247C 132.167,247.167 131.833,247.333 131.5,247.5C 130.749,246.624 130.249,245.624 130,244.5C 129.648,246.247 129.148,247.914 128.5,249.5C 127.842,248.602 127.176,247.602 126.5,246.5C 124.735,247.026 123.068,247.359 121.5,247.5C 121.368,244.43 121.701,241.43 122.5,238.5C 123.438,235.955 124.771,235.455 126.5,237C 124.635,239.588 123.802,242.422 124,245.5C 127.847,243.181 129.68,239.847 129.5,235.5C 130.5,235.5 131.5,235.5 132.5,235.5C 131.986,237.512 131.82,239.512 132,241.5C 132.689,237.708 134.856,235.708 138.5,235.5C 138.335,238.518 138.502,241.518 139,244.5C 139.906,241.69 141.073,239.024 142.5,236.5 Z"/></g>
<g><path style="opacity:1" fill="#373c8e" d="M 168.5,246.5 C 167.563,250.43 166.563,250.43 165.5,246.5C 164.817,246.863 164.15,247.196 163.5,247.5C 162.188,246.855 161.188,245.855 160.5,244.5C 161.348,242.591 161.682,240.591 161.5,238.5C 162.473,237.016 163.807,236.516 165.5,237C 163.897,239.68 163.063,242.513 163,245.5C 166.491,242.851 168.991,239.518 170.5,235.5C 170.833,236.167 171.167,236.833 171.5,237.5C 170.342,240.476 169.342,243.476 168.5,246.5 Z"/></g>
<g><path style="opacity:1" fill="#3c3d8c" d="M 171.5,248.5 C 170.167,248.5 169.5,247.833 169.5,246.5C 171.903,245.607 174.403,244.94 177,244.5C 179.241,244.68 179.741,245.513 178.5,247C 175.964,247.186 173.631,247.686 171.5,248.5 Z"/></g>
<g><path style="opacity:1" fill="#474893" d="M 209.5,237.5 C 208.751,240.201 207.751,242.868 206.5,245.5C 205.205,246.488 203.872,247.488 202.5,248.5C 198.901,249.062 196.901,247.562 196.5,244C 197.546,241.114 199.213,238.614 201.5,236.5C 202.167,236.5 202.5,236.167 202.5,235.5C 205.603,233.856 207.936,234.523 209.5,237.5 Z"/></g>
<g><path style="opacity:1" fill="#f3d5e9" d="M 204.5,237.5 C 205.649,237.791 206.316,238.624 206.5,240C 205.185,243.15 202.852,244.983 199.5,245.5C 199.536,241.8 201.203,239.133 204.5,237.5 Z"/></g>
<g><path style="opacity:1" fill="#5a5ca0" d="M 213.5,234.5 C 214.11,235.391 214.443,236.391 214.5,237.5C 213.793,239.781 212.793,241.948 211.5,244C 213.926,243.952 216.259,244.119 218.5,244.5C 219.838,241.48 221.171,238.48 222.5,235.5C 223.167,235.5 223.833,235.5 224.5,235.5C 224.938,235.435 225.272,235.601 225.5,236C 224.407,238.443 223.407,240.943 222.5,243.5C 223,243.833 223.5,244.167 224,244.5C 225.73,243.351 227.396,243.351 229,244.5C 230.058,241.234 231.558,238.234 233.5,235.5C 236.059,235.198 238.393,235.532 240.5,236.5C 238.219,236.077 236.552,236.744 235.5,238.5C 237.219,239.022 238.552,240.022 239.5,241.5C 237.076,242.03 234.743,242.864 232.5,244C 234.577,244.192 236.577,244.692 238.5,245.5C 237.91,246.799 236.91,247.632 235.5,248C 232.833,248.667 230.167,248.667 227.5,248C 228.696,247.346 228.696,246.846 227.5,246.5C 224.569,247.273 221.736,248.273 219,249.5C 218.085,248.672 217.419,247.672 217,246.5C 214.165,247.42 211.332,248.42 208.5,249.5C 207.571,248.311 207.238,246.978 207.5,245.5C 208.167,245.5 208.5,245.167 208.5,244.5C 210.176,243.817 210.843,242.483 210.5,240.5C 211.13,238.25 212.13,236.25 213.5,234.5 Z"/></g>
<g><path style="opacity:1" fill="#585a9d" d="M 296.5,236.5 C 296.489,238.017 295.823,239.184 294.5,240C 297.401,244.859 295.901,248.026 290,249.5C 287.98,248.968 287.147,247.635 287.5,245.5C 289.827,245.753 291.827,245.086 293.5,243.5C 292.398,242.824 291.398,242.158 290.5,241.5C 291.552,241.649 292.552,241.483 293.5,241C 292.481,238.472 293.481,236.972 296.5,236.5 Z"/></g>
<g><path style="opacity:0.588" fill="#8688b8" d="M 252.5,243.5 C 252.263,244.791 252.596,245.791 253.5,246.5C 253.762,247.978 253.429,249.311 252.5,250.5C 249.981,248.214 249.981,245.881 252.5,243.5 Z"/></g>
<g><path style="opacity:1" fill="#fad6e7" d="M 159.5,244.5 C 159.707,247.634 161.04,248.634 163.5,247.5C 164.15,247.196 164.817,246.863 165.5,246.5C 166.563,250.43 167.563,250.43 168.5,246.5C 168.833,246.5 169.167,246.5 169.5,246.5C 169.5,247.833 170.167,248.5 171.5,248.5C 172.675,248.281 173.675,248.614 174.5,249.5C 175.475,251.795 176.808,253.795 178.5,255.5C 179.296,258.717 178.963,261.883 177.5,265C 178.793,265.49 180.127,265.657 181.5,265.5C 179.031,266.317 176.365,266.817 173.5,267C 172.934,267.995 172.267,268.828 171.5,269.5C 171.433,266.234 173.099,264.734 176.5,265C 174.792,262.319 172.458,260.985 169.5,261C 170.328,261.915 171.328,262.581 172.5,263C 164.871,263.372 161.371,259.872 162,252.5C 160.348,251.601 158.848,250.601 157.5,249.5C 156.103,247.178 156.77,245.511 159.5,244.5 Z"/></g>
<g><path style="opacity:1" fill="#f8b0d0" d="M 144.5,238.5 C 144.842,239.338 145.508,239.672 146.5,239.5C 144.418,242.495 143.585,245.828 144,249.5C 145.646,247.391 146.812,245.057 147.5,242.5C 147.833,242.5 148.167,242.5 148.5,242.5C 148.244,244.792 148.577,246.959 149.5,249C 150.672,249.353 151.838,249.187 153,248.5C 154.313,250.392 155.813,250.726 157.5,249.5C 158.848,250.601 160.348,251.601 162,252.5C 161.371,259.872 164.871,263.372 172.5,263C 171.328,262.581 170.328,261.915 169.5,261C 172.458,260.985 174.792,262.319 176.5,265C 173.099,264.734 171.433,266.234 171.5,269.5C 170.657,271.173 169.324,272.34 167.5,273C 163.032,273.265 158.698,274.099 154.5,275.5C 153.624,275.631 152.957,275.298 152.5,274.5C 154.461,270.742 156.795,267.242 159.5,264C 158.027,263.29 157.36,262.124 157.5,260.5C 154.214,259.793 150.881,259.46 147.5,259.5C 145.279,257.02 142.946,254.52 140.5,252C 139.668,251.312 139.002,251.479 138.5,252.5C 137.902,253.795 137.402,255.128 137,256.5C 135.708,254.751 134.542,252.918 133.5,251C 131.975,249.991 130.308,249.491 128.5,249.5C 129.148,247.914 129.648,246.247 130,244.5C 130.249,245.624 130.749,246.624 131.5,247.5C 131.833,247.333 132.167,247.167 132.5,247C 133.477,244.398 134.644,241.898 136,239.5C 136.393,242.633 137.226,245.633 138.5,248.5C 140.983,245.374 142.983,242.041 144.5,238.5 Z"/></g>
<g><path style="opacity:1" fill="#f9d7e9" d="M 197.5,236.5 C 198.833,236.5 200.167,236.5 201.5,236.5C 199.213,238.614 197.546,241.114 196.5,244C 196.901,247.562 198.901,249.062 202.5,248.5C 202.297,250.044 201.63,251.378 200.5,252.5C 195.879,255.127 191.546,258.127 187.5,261.5C 187.628,259.345 187.128,257.345 186,255.5C 183.555,254.023 181.388,252.19 179.5,250C 180.766,249.691 181.933,249.191 183,248.5C 183.822,246.212 184.489,243.878 185,241.5C 185.191,243.708 185.691,245.708 186.5,247.5C 187.583,247.539 188.583,247.873 189.5,248.5C 196.488,244.854 196.155,243.854 188.5,245.5C 189.201,240.133 192.201,237.133 197.5,236.5 Z"/></g>
<g><path style="opacity:0.56" fill="#fde7f0" d="M 114.5,272.5 C 112.485,270.424 110.485,268.424 108.5,266.5C 110.218,265.776 112.052,265.109 114,264.5C 114.497,267.146 114.664,269.813 114.5,272.5 Z"/></g>
<g><path style="opacity:1" fill="#f9c0d9" d="M 128.5,249.5 C 130.308,249.491 131.975,249.991 133.5,251C 134.542,252.918 135.708,254.751 137,256.5C 137.402,255.128 137.902,253.795 138.5,252.5C 139.002,251.479 139.668,251.312 140.5,252C 142.946,254.52 145.279,257.02 147.5,259.5C 144.015,259.572 141.015,260.238 138.5,261.5C 135.9,258.781 132.9,258.114 129.5,259.5C 130.421,261.756 132.088,262.756 134.5,262.5C 134.596,266.731 132.93,270.065 129.5,272.5C 128.357,272.092 127.357,271.425 126.5,270.5C 125.933,268.018 125.266,265.684 124.5,263.5C 125.636,261.954 126.302,260.121 126.5,258C 126.374,255.194 125.374,252.86 123.5,251C 123.645,250.228 123.978,249.561 124.5,249C 123.263,248.768 122.263,248.268 121.5,247.5C 123.068,247.359 124.735,247.026 126.5,246.5C 127.176,247.602 127.842,248.602 128.5,249.5 Z"/></g>
<g><path style="opacity:1" fill="#fab4d3" d="M 106.5,262.5 C 110.877,263.839 114.543,262.505 117.5,258.5C 119.071,259.309 120.738,259.643 122.5,259.5C 122.703,261.39 122.037,262.89 120.5,264C 121.928,264.579 123.262,264.412 124.5,263.5C 125.266,265.684 125.933,268.018 126.5,270.5C 127.357,271.425 128.357,272.092 129.5,272.5C 129.249,274.17 128.582,275.67 127.5,277C 128.449,277.617 129.282,277.451 130,276.5C 131.778,278.899 133.278,278.566 134.5,275.5C 133.448,271.647 134.448,268.314 137.5,265.5C 139.926,264.832 142.259,264.498 144.5,264.5C 144.833,264.833 145.167,265.167 145.5,265.5C 143.861,266.916 143.027,268.583 143,270.5C 144.444,268.845 146.278,268.178 148.5,268.5C 148.33,267.178 148.663,266.011 149.5,265C 151.329,264.727 152.829,263.893 154,262.5C 154.75,263.126 155.584,263.626 156.5,264C 151.451,265.944 149.451,269.444 150.5,274.5C 150.154,275.696 149.654,275.696 149,274.5C 148.674,277.332 149.174,279.999 150.5,282.5C 148.214,287.979 144.214,290.812 138.5,291C 137.281,288.717 137.281,286.384 138.5,284C 138.37,282.941 137.87,282.108 137,281.5C 130.318,283.247 124.651,281.58 120,276.5C 115.474,279.501 113.641,278.168 114.5,272.5C 114.664,269.813 114.497,267.146 114,264.5C 112.052,265.109 110.218,265.776 108.5,266.5C 104.818,266.665 101.152,266.499 97.5,266C 95.9336,265.392 94.6002,264.558 93.5,263.5C 92.6103,261.218 92.4436,258.885 93,256.5C 96.2436,251.707 99.077,251.707 101.5,256.5C 99.898,259.534 100.231,262.201 102.5,264.5C 103.622,263.37 104.956,262.703 106.5,262.5 Z"/></g>
<g><path style="opacity:1" fill="#fcd3e6" d="M 147.5,259.5 C 150.881,259.46 154.214,259.793 157.5,260.5C 157.36,262.124 158.027,263.29 159.5,264C 156.795,267.242 154.461,270.742 152.5,274.5C 152.957,275.298 153.624,275.631 154.5,275.5C 153.404,278.032 152.071,280.365 150.5,282.5C 149.174,279.999 148.674,277.332 149,274.5C 149.654,275.696 150.154,275.696 150.5,274.5C 149.451,269.444 151.451,265.944 156.5,264C 155.584,263.626 154.75,263.126 154,262.5C 152.829,263.893 151.329,264.727 149.5,265C 148.663,266.011 148.33,267.178 148.5,268.5C 146.278,268.178 144.444,268.845 143,270.5C 143.027,268.583 143.861,266.916 145.5,265.5C 145.167,265.167 144.833,264.833 144.5,264.5C 142.259,264.498 139.926,264.832 137.5,265.5C 134.448,268.314 133.448,271.647 134.5,275.5C 133.278,278.566 131.778,278.899 130,276.5C 129.282,277.451 128.449,277.617 127.5,277C 128.582,275.67 129.249,274.17 129.5,272.5C 132.93,270.065 134.596,266.731 134.5,262.5C 132.088,262.756 130.421,261.756 129.5,259.5C 132.9,258.114 135.9,258.781 138.5,261.5C 141.015,260.238 144.015,259.572 147.5,259.5 Z"/></g>
</svg>
